<svg xmlns="http://www.w3.org/2000/svg" width="92.406" height="103.078" viewBox="0 0 92.406 103.078">
  <defs>
    <style>
      .cls-1 {
        fill: #4f87fb;
      }

      .cls-2 {
        fill: #263357;
      }

      .cls-3 {
        fill: #61c4f2;
      }
    </style>
  </defs>
  <g id="Group_1378" data-name="Group 1378" transform="translate(-534.303 -648.491)">
    <path id="Path_4775" data-name="Path 4775" class="cls-1" d="M568.2,724.807l.9-6.319-4.513-2.709s-13.543,1.806-22.571,18.057a36.156,36.156,0,0,0-3.075,8.749c-2.445,1.229-3.807,6.658-1.439,10.211a6.681,6.681,0,0,0,9.931,1.805c.9-.9,0,0,1.805-.9,5.417,2.709,15.349,4.514,28.89,4.514,7.714,0,20.765,0,27.085-4.514,1.535.922,5.18,3.872,7.222,3.611,3.964-.505,8.7-6.663,6.32-10.834-1.342-2.348-1.806-3.611-3.611-5.417-1.788-4.08-3.8-10.332-7.223-14.445-4.514-5.417-14.263-9.931-18.056-9.931l-3.612,2.708,3.612,6.32,2.708,2.708-5.417,5.417c-3.039.679-6.267.249-8.125-.9-2.247,1.965-5.416,1.806-9.028.9l-1.805,1.806-3.611-7.223Z" transform="translate(-0.239 -8.181)"/>
    <g id="Group_1357" data-name="Group 1357" transform="translate(571.281 691.583)">
      <path id="Path_4776" data-name="Path 4776" class="cls-2" d="M586.944,704.574h-9.229a1.318,1.318,0,0,1-1.28-1.631c.609-2.489,2.417-5.4,5.513-5.4h.381c3.374,0,5.257,2.788,5.894,5.4a1.317,1.317,0,0,1-1.28,1.631Zm-7.311-2.635h5.378a3.1,3.1,0,0,0-2.681-1.757h-.381A2.826,2.826,0,0,0,579.633,701.939Z" transform="translate(-576.398 -697.547)"/>
    </g>
    <g id="Group_1358" data-name="Group 1358" transform="translate(557.556 662.853)">
      <path id="Path_4777" data-name="Path 4777" class="cls-2" d="M580.654,707.745H580.6c-6.35-.246-12.768-5.237-15.827-10.042-3.371-5.3-5.351-14.222-2.928-19.068a1.329,1.329,0,0,1,.462-.517c6.95-4.5,10.241-8.6,9.264-11.542a1.318,1.318,0,0,1,2.5-.831c1.411,4.254-1.957,9.091-10.012,14.376-1.7,3.977.095,11.7,2.936,16.166,2.625,4.122,8.319,8.616,13.705,8.824a1.318,1.318,0,0,1-.05,2.634Z" transform="translate(-560.774 -664.841)"/>
    </g>
    <g id="Group_1359" data-name="Group 1359" transform="translate(567.659 661.399)">
      <path id="Path_4778" data-name="Path 4778" class="cls-2" d="M600.955,686.606a1,1,0,0,1-.1,0,1.316,1.316,0,0,1-1.212-1.415,7.654,7.654,0,0,0-.432-3.953c-6.794-1.117-12.643-3.268-16.951-6.235a38.021,38.021,0,0,1-9.747-9.746,1.318,1.318,0,0,1,2.169-1.5,35.405,35.405,0,0,0,9.072,9.073c4.129,2.844,9.855,4.888,16.557,5.913a1.318,1.318,0,0,1,.979.712,9.871,9.871,0,0,1,.979,5.936A1.318,1.318,0,0,1,600.955,686.606Z" transform="translate(-572.276 -663.186)"/>
    </g>
    <g id="Group_1360" data-name="Group 1360" transform="translate(576.515 698.504)">
      <path id="Path_4779" data-name="Path 4779" class="cls-2" d="M583.675,712.679a1.318,1.318,0,0,1-.049-2.634c3.07-.119,6.6-1.687,9.691-4.306a1.318,1.318,0,1,1,1.7,2.011,19.184,19.184,0,0,1-11.293,4.929Z" transform="translate(-582.358 -705.426)"/>
    </g>
    <g id="Group_1361" data-name="Group 1361" transform="translate(542.604 697.851)">
      <path id="Path_4780" data-name="Path 4780" class="cls-2" d="M546.928,717.6a1.313,1.313,0,0,1-1-.466,9.135,9.135,0,0,1-2.17-5.907,9.034,9.034,0,0,1,2.363-6.119,1.317,1.317,0,1,1,1.944,1.779,6.408,6.408,0,0,0-1.672,4.34,6.5,6.5,0,0,0,1.543,4.2,1.318,1.318,0,0,1-1,2.171Z" transform="translate(-543.753 -704.683)"/>
    </g>
    <g id="Group_1362" data-name="Group 1362" transform="translate(544.045 689.718)">
      <path id="Path_4781" data-name="Path 4781" class="cls-2" d="M549.571,707.93a1.311,1.311,0,0,1-.719-.214,7.61,7.61,0,0,1-2.976-3.736,7.252,7.252,0,0,1-.483-2.647,7.626,7.626,0,0,1,2.41-5.554,1.318,1.318,0,1,1,1.8,1.926,4.915,4.915,0,0,0-1.574,3.629,4.68,4.68,0,0,0,.313,1.714,4.992,4.992,0,0,0,1.951,2.462,1.318,1.318,0,0,1-.721,2.421Z" transform="translate(-545.393 -695.424)"/>
    </g>
    <g id="Group_1363" data-name="Group 1363" transform="translate(545.485 682.959)">
      <path id="Path_4782" data-name="Path 4782" class="cls-2" d="M551.079,699.481a1.3,1.3,0,0,1-.659-.177,6.705,6.705,0,0,1-2.706-2.93,6.517,6.517,0,0,1-.681-2.937,6.711,6.711,0,0,1,2.787-5.463,1.318,1.318,0,1,1,1.53,2.146,4.068,4.068,0,0,0-1.682,3.317,3.863,3.863,0,0,0,.408,1.771,4.128,4.128,0,0,0,1.663,1.816,1.317,1.317,0,0,1-.661,2.457Z" transform="translate(-547.033 -687.73)"/>
    </g>
    <g id="Group_1364" data-name="Group 1364" transform="translate(546.912 676.2)">
      <path id="Path_4783" data-name="Path 4783" class="cls-2" d="M552.282,690.839a1.306,1.306,0,0,1-.664-.18,5.971,5.971,0,0,1-1.93-1.813,5.835,5.835,0,0,1-1.031-3.32,5.93,5.93,0,0,1,3.464-5.372,1.318,1.318,0,0,1,1.1,2.4,3.29,3.29,0,0,0-1.925,2.976,3.233,3.233,0,0,0,.574,1.838,3.345,3.345,0,0,0,1.081,1.02,1.318,1.318,0,0,1-.666,2.455Z" transform="translate(-548.657 -680.035)"/>
    </g>
    <g id="Group_1365" data-name="Group 1365" transform="translate(548.351 669.641)">
      <path id="Path_4784" data-name="Path 4784" class="cls-2" d="M554.193,682.546a1.333,1.333,0,0,1-.414-.067,5.085,5.085,0,0,1,1.6-9.911,1.318,1.318,0,0,1,0,2.635,2.45,2.45,0,0,0-.771,4.774,1.318,1.318,0,0,1-.415,2.568Z" transform="translate(-550.295 -672.568)"/>
    </g>
    <g id="Group_1366" data-name="Group 1366" transform="translate(552.877 648.491)">
      <path id="Path_4785" data-name="Path 4785" class="cls-2" d="M603.805,678.652a1.318,1.318,0,0,1-.415-2.568c.75-.249,1.384-1.579,1.384-2.907,0-.462,0-1.867-2.155-1.867a1.317,1.317,0,0,1-1.287-1.6,25.044,25.044,0,0,0,.54-3.3,2.987,2.987,0,0,0-2.009-2.622,1.331,1.331,0,0,1-.892-1.246h0a7.363,7.363,0,0,0-.828-2.312c-.323-.645-1.988-1-3.016-1h0a1.317,1.317,0,0,1-1.313-1.212c-.191-2.384-2.711-4.57-6.738-5.848-5.881-1.867-12.515-1.174-14.781,1.545a1.322,1.322,0,0,1-.595.407c-.054.018-5.453,1.861-8.065,5.343a10.073,10.073,0,0,0-1.387,4.152c-.173,1.02-.367,2.176-1.6,2.176-1.259,0-2.562,1.677-2.562,4.483a5.379,5.379,0,0,0,.471,2.212,1.317,1.317,0,1,1-2.4,1.079,7.975,7.975,0,0,1-.7-3.291c0-4,2.007-6.41,4.181-6.983.006-.039.013-.077.018-.114a12.231,12.231,0,0,1,1.877-5.294c2.723-3.631,7.64-5.637,8.993-6.138,3.544-3.81,11.506-3.943,17.353-2.087,4.6,1.459,7.581,3.978,8.377,7.016,1.324.17,3.416.7,4.253,2.379a11.725,11.725,0,0,1,.979,2.585,5.349,5.349,0,0,1,3.027,4.772,16.426,16.426,0,0,1-.319,2.461,4.188,4.188,0,0,1,3.22,4.308c0,2.1-1,4.683-3.19,5.408A1.313,1.313,0,0,1,603.805,678.652Z" transform="translate(-555.448 -648.491)"/>
    </g>
    <g id="Group_1367" data-name="Group 1367" transform="translate(588.964 707.232)">
      <path id="Path_4786" data-name="Path 4786" class="cls-2" d="M620.781,737.222a1.318,1.318,0,0,1-1.229-.842c-3.363-8.675-9.966-15.015-18.114-17.394l-3.927-1.032a1.318,1.318,0,0,1,.671-2.548l3.96,1.043c8.976,2.619,16.2,9.533,19.866,18.979a1.317,1.317,0,0,1-.752,1.7A1.3,1.3,0,0,1,620.781,737.222Z" transform="translate(-596.529 -715.362)"/>
    </g>
    <g id="Group_1368" data-name="Group 1368" transform="translate(552.619 745.617)">
      <path id="Path_4787" data-name="Path 4787" class="cls-2" d="M580.215,765.012c-9.476,0-17.6-1.139-24.171-3.388a1.317,1.317,0,1,1,.855-2.492c6.376,2.183,14.364,3.3,23.7,3.244,8.825-.029,15.965-.974,21.828-2.89a1.317,1.317,0,1,1,.818,2.5c-6.127,2-13.532,2.991-22.637,3.021Z" transform="translate(-555.154 -759.06)"/>
    </g>
    <g id="Group_1369" data-name="Group 1369" transform="translate(540.047 707.232)">
      <path id="Path_4788" data-name="Path 4788" class="cls-2" d="M542.161,737.165a1.319,1.319,0,0,1-1.228-1.8c3.671-9.415,10.892-16.308,19.811-18.911l3.993-1.051a1.318,1.318,0,0,1,.671,2.548L561.448,719c-8.094,2.363-14.689,8.683-18.06,17.329A1.318,1.318,0,0,1,542.161,737.165Z" transform="translate(-540.843 -715.362)"/>
    </g>
    <g id="Group_1370" data-name="Group 1370" transform="translate(565.66 680.163)">
      <path id="Path_4789" data-name="Path 4789" class="cls-2" d="M576.588,687.182h-5.271a1.318,1.318,0,0,1,0-2.635h5.271a1.318,1.318,0,0,1,0,2.635Z" transform="translate(-570 -684.547)"/>
    </g>
    <g id="Group_1371" data-name="Group 1371" transform="translate(581.472 680.163)">
      <path id="Path_4790" data-name="Path 4790" class="cls-2" d="M594.588,687.182h-5.271a1.318,1.318,0,0,1,0-2.635h5.271a1.318,1.318,0,0,1,0,2.635Z" transform="translate(-588 -684.547)"/>
    </g>
    <g id="Group_1372" data-name="Group 1372" transform="translate(566.622 707.914)">
      <path id="Path_4791" data-name="Path 4791" class="cls-2" d="M616.009,758.649a6.693,6.693,0,0,1-4.059-1.314C608,754.37,593.3,738.306,590.1,734.793c-1.811.524-5.922,1.045-10.453-2.84-3.11-2.666-5.465-4.573-6.893-5.7a4.4,4.4,0,0,1-1.556-4.389l.429-1.927a4.835,4.835,0,0,1,5.237-3.766c3.569.378,4.272.419,4.41.42.458,0,1.312,0,5.535,4.224a1.317,1.317,0,0,1-1.863,1.863,32.891,32.891,0,0,0-3.9-3.458c-.379-.021-1.378-.1-4.459-.43A2.212,2.212,0,0,0,574.2,720.5l-.43,1.929a1.735,1.735,0,0,0,.618,1.751c1.447,1.146,3.832,3.075,6.974,5.769,4.655,3.99,8.493,2.144,8.531,2.124a1.319,1.319,0,0,1,1.565.293c.178.2,17.923,19.746,22.072,22.857a4.768,4.768,0,0,0,5.009.181,6.824,6.824,0,0,0,4.027-5.536c.117-2.565-1.654-5-5.122-7.039-12.948-7.617-23.782-15.336-23.89-15.414a1.32,1.32,0,0,1-.438-.537c-1.34-3.017-3.272-6.566-4.01-7.043a1.3,1.3,0,0,1-.579-1.761,1.324,1.324,0,0,1,1.778-.584c1.636.817,3.822,5.212,5.071,7.986,1.8,1.272,11.737,8.219,23.406,15.082,5.8,3.414,6.512,7.373,6.419,9.43a9.388,9.388,0,0,1-5.535,7.8A8.584,8.584,0,0,1,616.009,758.649Z" transform="translate(-571.095 -716.139)"/>
    </g>
    <g id="Group_1373" data-name="Group 1373" transform="translate(534.303 714.904)">
      <path id="Path_4792" data-name="Path 4792" class="cls-2" d="M543.4,758.769a8.433,8.433,0,0,1-4.069-1.107,9.383,9.383,0,0,1-5.022-8.138c.039-2.059,1-5.965,7.01-9,12.091-6.1,22.458-12.4,24.329-13.548.234-.437.69-1.271,1.253-2.231a1.317,1.317,0,1,1,2.274,1.331c-.778,1.329-1.359,2.435-1.364,2.446a1.331,1.331,0,0,1-.472.508c-.113.069-11.421,7.077-24.832,13.846-3.591,1.813-5.515,4.129-5.563,6.7a6.824,6.824,0,0,0,3.663,5.783,4.765,4.765,0,0,0,5.01.141c4.34-2.839,23.3-21.206,23.5-21.391a1.321,1.321,0,0,1,1.581-.192c.1.059,2.845,1.543,6.687-.351a1.317,1.317,0,1,1,1.167,2.362,10.435,10.435,0,0,1-8.233.686c-3.417,3.3-19.119,18.388-23.254,21.093A6.627,6.627,0,0,1,543.4,758.769Z" transform="translate(-534.303 -724.096)"/>
    </g>
    <g id="Group_1374" data-name="Group 1374" transform="translate(589.626 685.967)">
      <path id="Path_4793" data-name="Path 4793" class="cls-3" d="M598.6,696.8a1.318,1.318,0,0,1-.265-2.608l14.479-3.006a1.318,1.318,0,0,1,.535,2.581l-14.479,3.006A1.346,1.346,0,0,1,598.6,696.8Z" transform="translate(-597.283 -691.154)"/>
    </g>
    <g id="Group_1375" data-name="Group 1375" transform="translate(589.66 694.995)">
      <path id="Path_4794" data-name="Path 4794" class="cls-3" d="M611.278,709.484a1.307,1.307,0,0,1-.518-.107l-12.64-5.417a1.317,1.317,0,1,1,1.038-2.422l12.64,5.417a1.318,1.318,0,0,1-.52,2.529Z" transform="translate(-597.322 -701.432)"/>
    </g>
    <g id="Group_1376" data-name="Group 1376" transform="translate(596.884 692.288)">
      <path id="Path_4795" data-name="Path 4795" class="cls-3" d="M614.087,701.887a1.327,1.327,0,0,1-.166-.011l-7.222-.9a1.318,1.318,0,0,1,.328-2.615l7.222.9a1.317,1.317,0,0,1-.162,2.625Z" transform="translate(-605.545 -698.35)"/>
    </g>
    <g id="Group_1377" data-name="Group 1377" transform="translate(604.421 678.887)">
      <path id="Path_4796" data-name="Path 4796" class="cls-3" d="M621.3,713.62a9.445,9.445,0,0,1-1.108-.067,8.966,8.966,0,0,1-5.75-3.083,1.318,1.318,0,0,1,2-1.712,6.352,6.352,0,0,0,10.8-1.969,1.317,1.317,0,0,1,.936-.834,7.247,7.247,0,0,0,1-13.8,1.318,1.318,0,0,1-.834-1.178,5.45,5.45,0,0,0-10.175-2.507,1.317,1.317,0,1,1-2.285-1.311,8.085,8.085,0,0,1,15.019,2.881,9.881,9.881,0,0,1-1.448,18.295A8.931,8.931,0,0,1,621.3,713.62Z" transform="translate(-614.126 -683.093)"/>
    </g>
  </g>
</svg>
