<svg xmlns="http://www.w3.org/2000/svg" width="95.707" height="100.027" viewBox="0 0 95.707 100.027">
  <defs>
    <style>
      .cls-1 {
        fill: #263357;
      }

      .cls-2 {
        fill: #4f87fb;
      }

      .cls-3 {
        fill: #fff;
      }

      .cls-4 {
        fill: #61c4f2;
      }

      .cls-5 {
        fill: #f86464;
      }
    </style>
  </defs>
  <g id="Group_1304" data-name="Group 1304" transform="translate(-321 -236.486)">
    <circle id="Ellipse_302" data-name="Ellipse 302" class="cls-1" cx="1.252" cy="1.252" r="1.252" transform="translate(397.39 334.01)"/>
    <path id="Path_4693" data-name="Path 4693" class="cls-2" d="M328.863,341.021s.908-18.581.908-19.959c0-14.784,8.048-24.906,8.332-25.649.2-.53,20.1,6.944,20.328,7.392.655,1.276,4.615,12.889,4.619,12.936l.924,4.619,8.109-9.677,10.379,7.185s-11.177,16.766-17.564,18.954v4.2Z" transform="translate(-1.586 -11.877)"/>
    <g id="Group_1287" data-name="Group 1287" transform="translate(346.359 278.049)">
      <path id="Path_4694" data-name="Path 4694" class="cls-1" d="M363.072,295.526q-.465,0-.928-.035a13.409,13.409,0,0,1-9.116-4.916,1.2,1.2,0,1,1,1.867-1.5,10.961,10.961,0,0,0,7.43,4.029,10.056,10.056,0,0,0,3.812-.451,2.9,2.9,0,0,0,1.984-2.908,1.2,1.2,0,0,1,2.4,0,5.289,5.289,0,0,1-3.658,5.192A12.548,12.548,0,0,1,363.072,295.526Z" transform="translate(-352.764 -288.546)"/>
    </g>
    <g id="Group_1288" data-name="Group 1288" transform="translate(361.564 257.243)">
      <path id="Path_4695" data-name="Path 4695" class="cls-1" d="M374.126,279.415l-.071,0a1.2,1.2,0,0,1-1.125-1.266,52.955,52.955,0,0,0-1.094-14.213,1.2,1.2,0,0,1,2.342-.5,55.344,55.344,0,0,1,1.142,14.857A1.2,1.2,0,0,1,374.126,279.415Z" transform="translate(-371.809 -262.486)"/>
    </g>
    <g id="Group_1289" data-name="Group 1289" transform="translate(334.757 256.349)">
      <path id="Path_4696" data-name="Path 4696" class="cls-1" d="M346.335,277.624h0a8.183,8.183,0,0,1-5.245-1.851c-2.183-1.862-3.731-5.355-2.3-8.162a5.091,5.091,0,0,1,3.291-2.643,5.677,5.677,0,0,1,5.349,2.328,5,5,0,0,1,5.875-3.637,17.55,17.55,0,0,0,3.555.39h.124a17.93,17.93,0,0,0,9.1-2.517,1.2,1.2,0,0,1,1.22,2.061,20.468,20.468,0,0,1-10.457,2.85A19.957,19.957,0,0,1,352.8,266a2.594,2.594,0,0,0-3.069,1.954l-.659,2.923a1.2,1.2,0,0,1-2.3.121c-.887-2.622-2.88-3.953-4.219-3.682a2.744,2.744,0,0,0-1.629,1.38c-.83,1.631.247,4,1.721,5.255a5.778,5.778,0,0,0,3.7,1.279,1.2,1.2,0,0,1,0,2.4Z" transform="translate(-338.231 -261.365)"/>
    </g>
    <g id="Group_1290" data-name="Group 1290" transform="translate(332.856 242.538)">
      <path id="Path_4697" data-name="Path 4697" class="cls-1" d="M337.656,266.858l1.108-.454-1.124.414c-2-4.878-2.331-9.33-.951-12.874a15.2,15.2,0,0,1,4.132-5.835c6.29-5.478,16.5-4.833,23.331-1.365a22.965,22.965,0,0,1,5.982,4.4,1.2,1.2,0,0,1,.338.963,13.346,13.346,0,0,1-3.48,7.694,1.2,1.2,0,0,1-1.76-1.624,10.951,10.951,0,0,0,2.786-5.759,20.543,20.543,0,0,0-4.95-3.536c-6.117-3.1-15.181-3.745-20.675,1.036a12.952,12.952,0,0,0-3.472,4.9c-1.136,2.919-.8,6.859.935,11.1l-1.091.495Z" transform="translate(-335.85 -244.066)"/>
    </g>
    <g id="Group_1291" data-name="Group 1291" transform="translate(336.73 269.021)">
      <path id="Path_4698" data-name="Path 4698" class="cls-1" d="M342.823,287.95a1.2,1.2,0,0,1-1.189-1.066l-.924-8.316a1.2,1.2,0,0,1,2.381-.264l.924,8.316a1.2,1.2,0,0,1-1.059,1.322A1.075,1.075,0,0,1,342.823,287.95Z" transform="translate(-340.703 -277.239)"/>
    </g>
    <g id="Group_1292" data-name="Group 1292" transform="translate(336.967 293.554)">
      <path id="Path_4699" data-name="Path 4699" class="cls-1" d="M366.706,339.758c-9.256,0-21.59-11.2-22.124-11.684a1.2,1.2,0,0,1,1.617-1.767c.127.116,12.772,11.589,21.08,11.037a5.862,5.862,0,0,0,4.336-2.138c6.437-7.725,12.416-16.061,14.407-18.88l-8.2-5.518c-1.807,2.528-6.863,9.575-10.712,14.706a2.657,2.657,0,0,1-2.156,1.111h-.04c-3.1,0-7.26-4.918-11.258-9.958-.5-.631-.908-1.145-1.187-1.47-1.919-2.233-4.2-3.206-6.247-2.67a3.826,3.826,0,0,0-2.847,2.922,1.2,1.2,0,0,1-2.349-.469,6.2,6.2,0,0,1,4.588-4.769c2.97-.779,6.13.47,8.672,3.425.293.342.721.881,1.246,1.543,1.778,2.241,7.179,9.051,9.374,9.051h.014a.291.291,0,0,0,.272-.153c4.727-6.3,11.289-15.514,11.354-15.607a1.2,1.2,0,0,1,1.644-.3l10.184,6.849a1.2,1.2,0,0,1,.316,1.675c-.072.1-7.307,10.533-15.233,20.044a8.247,8.247,0,0,1-6.016,2.994C367.2,339.751,366.953,339.758,366.706,339.758Z" transform="translate(-340.999 -307.967)"/>
    </g>
    <g id="Group_1293" data-name="Group 1293" transform="translate(352.136 282.839)">
      <path id="Path_4700" data-name="Path 4700" class="cls-3" d="M361.5,296.047v0Z" transform="translate(-360.302 -294.849)"/>
      <path id="Path_4701" data-name="Path 4701" class="cls-1" d="M361.2,300.134a1.2,1.2,0,0,1-1.2-1.2v-3.193a1.2,1.2,0,1,1,2.4,0v3.193A1.2,1.2,0,0,1,361.2,300.134Z" transform="translate(-360 -294.546)"/>
    </g>
    <g id="Group_1294" data-name="Group 1294" transform="translate(326.588 281.957)">
      <path id="Path_4702" data-name="Path 4702" class="cls-1" d="M329.2,341.427a1.2,1.2,0,0,1-1.2-1.2c0-.733-.012-18.031.913-24.509,1.587-11.113,8.219-21.311,8.5-21.74a1.2,1.2,0,0,1,1.421-.464c5.638,2.114,15.276,5.468,17.136,5.468,4.2,0,7.666,13.579,7.666,15.981a1.2,1.2,0,0,1-2.4,0c0-3.107-3.693-13.156-5.308-13.59h0c-2.555,0-13.535-3.986-17.015-5.274-1.571,2.6-6.367,11.111-7.63,19.957-.9,6.309-.889,23.99-.889,24.167a1.2,1.2,0,0,1-1.2,1.2Z" transform="translate(-328 -293.442)"/>
    </g>
    <g id="Group_1295" data-name="Group 1295" transform="translate(361.716 324.353)">
      <path id="Path_4703" data-name="Path 4703" class="cls-1" d="M373.2,352.134a1.2,1.2,0,0,1-1.2-1.2v-3.193a1.2,1.2,0,0,1,2.4,0v3.193A1.2,1.2,0,0,1,373.2,352.134Z" transform="translate(-372 -346.546)"/>
    </g>
    <g id="Group_1296" data-name="Group 1296" transform="translate(368.386 268.856)">
      <path id="Path_4704" data-name="Path 4704" class="cls-4" d="M381.552,281.275a1.2,1.2,0,0,1-.328-2.35l6.468-1.848a1.2,1.2,0,0,1,.658,2.3l-6.467,1.848A1.214,1.214,0,0,1,381.552,281.275Z" transform="translate(-380.355 -277.031)"/>
    </g>
    <g id="Group_1297" data-name="Group 1297" transform="translate(368.387 276.246)">
      <path id="Path_4705" data-name="Path 4705" class="cls-4" d="M389.869,290.533a1.171,1.171,0,0,1-.26-.029l-8.316-1.848a1.2,1.2,0,0,1,.52-2.338l8.316,1.848a1.2,1.2,0,0,1-.259,2.366Z" transform="translate(-380.356 -286.289)"/>
    </g>
    <g id="Group_1298" data-name="Group 1298" transform="translate(365.615 280.868)">
      <path id="Path_4706" data-name="Path 4706" class="cls-4" d="M382.7,298.168a1.2,1.2,0,0,1-.748-.262l-4.619-3.7a1.2,1.2,0,0,1,1.5-1.87l4.619,3.7a1.2,1.2,0,0,1-.749,2.132Z" transform="translate(-376.884 -292.078)"/>
    </g>
    <g id="Group_1299" data-name="Group 1299" transform="translate(375.288 281.273)">
      <path id="Path_4707" data-name="Path 4707" class="cls-1" d="M390.2,307.723a1.2,1.2,0,0,1-1.052-1.768l.692-1.278-.461-1.85a6.089,6.089,0,0,1,.8-4.789l2.553-3.85a3.577,3.577,0,0,1,6.048,3.818l-1.17,1.95a1.2,1.2,0,0,1-2.053-1.232l1.17-1.951a1.182,1.182,0,0,0-2-1.261l-2.548,3.842a3.689,3.689,0,0,0-.482,2.892l.575,2.3a1.2,1.2,0,0,1-.109.861l-.914,1.687A1.2,1.2,0,0,1,390.2,307.723Z" transform="translate(-389 -292.585)"/>
    </g>
    <g id="Group_1300" data-name="Group 1300" transform="translate(381.05 273.674)">
      <path id="Path_4708" data-name="Path 4708" class="cls-1" d="M398.837,307.4a1.2,1.2,0,0,1-1.016-1.829l5.753-9.269a1.705,1.705,0,0,0,.123-1.335l-2.979-8.6q-.018-.05-.031-.1a1.052,1.052,0,0,0-2.041.51L400,292.348a1.2,1.2,0,0,1-2.328.566l-1.354-5.571A3.447,3.447,0,0,1,403,285.624l2.975,8.59a4.144,4.144,0,0,1-.339,3.314l-5.776,9.306A1.2,1.2,0,0,1,398.837,307.4Z" transform="translate(-396.217 -283.067)"/>
    </g>
    <circle id="Ellipse_303" data-name="Ellipse 303" class="cls-5" cx="15.416" cy="15.416" r="15.416" transform="translate(379.991 242.195)"/>
    <path id="Path_4709" data-name="Path 4709" class="cls-3" d="M410.638,250.547l-4.879,12.127,5.855.139-1.673,10.664,8.5-14.149h-5.018l6.133-8.782Z" transform="translate(-17.091 -2.835)"/>
    <g id="Group_1301" data-name="Group 1301" transform="translate(374.456 236.486)">
      <path id="Path_4710" data-name="Path 4710" class="cls-5" d="M414.634,278.14a1.2,1.2,0,0,1-.338-2.346c.522-.153,1.046-.334,1.558-.535a1.2,1.2,0,1,1,.877,2.229c-.578.227-1.17.43-1.757.6A1.219,1.219,0,0,1,414.634,278.14Zm6.712-3.464a1.2,1.2,0,0,1-.74-2.14c.43-.338.851-.7,1.251-1.074a1.2,1.2,0,0,1,1.637,1.748c-.452.422-.925.829-1.409,1.21A1.194,1.194,0,0,1,421.346,274.676Zm4.965-5.693a1.2,1.2,0,0,1-1.032-1.8c.275-.472.534-.962.768-1.457a1.2,1.2,0,0,1,2.166,1.022c-.264.56-.556,1.113-.868,1.645A1.194,1.194,0,0,1,426.311,268.982Zm2.516-7.122a1.124,1.124,0,0,1-.178-.014,1.2,1.2,0,0,1-1.008-1.361c.082-.545.141-1.1.174-1.64a1.2,1.2,0,1,1,2.39.149c-.038.612-.1,1.232-.2,1.845A1.2,1.2,0,0,1,428.828,261.86Zm-39.67-6.685a1.2,1.2,0,0,1-1.179-1.415c.113-.612.253-1.221.417-1.81a1.2,1.2,0,1,1,2.308.639c-.145.522-.269,1.063-.37,1.605A1.2,1.2,0,0,1,389.157,255.176Zm39.379-.862a1.2,1.2,0,0,1-1.166-.928c-.125-.538-.273-1.073-.441-1.59a1.2,1.2,0,0,1,2.279-.739c.188.583.355,1.184.495,1.789a1.2,1.2,0,0,1-.9,1.436A1.166,1.166,0,0,1,428.536,254.313ZM391.9,248.14a1.185,1.185,0,0,1-.636-.184,1.2,1.2,0,0,1-.376-1.651c.33-.524.685-1.038,1.058-1.528a1.2,1.2,0,1,1,1.907,1.449c-.33.434-.646.89-.938,1.355A1.2,1.2,0,0,1,391.9,248.14Zm33.581-.733a1.2,1.2,0,0,1-.986-.517c-.307-.445-.642-.886-1-1.312a1.2,1.2,0,0,1,1.843-1.529c.4.48.776.978,1.122,1.481a1.2,1.2,0,0,1-.984,1.878Zm-28.43-4.793a1.2,1.2,0,0,1-.709-2.164c.5-.363,1.014-.711,1.543-1.031a1.2,1.2,0,0,1,1.244,2.046c-.469.286-.931.594-1.372.917A1.2,1.2,0,0,1,397.054,242.613Zm23.043-.5a1.193,1.193,0,0,1-.666-.2c-.454-.3-.927-.591-1.408-.854a1.2,1.2,0,1,1,1.152-2.1c.542.3,1.076.621,1.589.964a1.2,1.2,0,0,1-.667,2.192Zm-16.222-2.736a1.2,1.2,0,0,1-.3-2.358c.6-.155,1.21-.286,1.819-.386a1.2,1.2,0,1,1,.394,2.362c-.54.09-1.082.206-1.612.343A1.184,1.184,0,0,1,403.875,239.373Zm9.267-.2a1.157,1.157,0,0,1-.25-.027c-.535-.113-1.083-.205-1.626-.271a1.2,1.2,0,1,1,.292-2.378c.612.075,1.229.179,1.831.307a1.2,1.2,0,0,1-.247,2.37Z" transform="translate(-387.958 -236.486)"/>
    </g>
    <g id="Group_1302" data-name="Group 1302" transform="translate(321 328.345)">
      <path id="Path_4711" data-name="Path 4711" class="cls-1" d="M409.219,353.941H322.2a1.2,1.2,0,0,1,0-2.4h87.021a1.2,1.2,0,1,1,0,2.4Z" transform="translate(-321 -351.546)"/>
    </g>
    <g id="Group_1303" data-name="Group 1303" transform="translate(336.967 333.934)">
      <path id="Path_4712" data-name="Path 4712" class="cls-1" d="M397.284,360.941H342.2a1.2,1.2,0,1,1,0-2.4h55.087a1.2,1.2,0,1,1,0,2.4Z" transform="translate(-341 -358.546)"/>
    </g>
  </g>
</svg>
