<svg xmlns="http://www.w3.org/2000/svg" width="131.811" height="116.981" viewBox="0 0 131.811 116.981">
  <g id="Group_1409" data-name="Group 1409" transform="translate(-324.25 -455.048)">
    <path id="Path_4815" data-name="Path 4815" d="M449.5,559.121s-3.4-9.239-3.914-10.1a36.647,36.647,0,0,0-23.719-16.9,1.112,1.112,0,0,0-.97.241,1.164,1.164,0,0,0-.392.142,36.412,36.412,0,0,1-11.766,4.65c-4.025.815-8.353.364-12.2,1.963-1.823.758-3.51,1.81-5.292,2.661a48.221,48.221,0,0,1-5.959,2.362,50.3,50.3,0,0,1-12.867,2.356c-.651.033-.543.92-1.152,1.152C366.189,549.589,355,559.121,355,559.121Z" transform="translate(4.686 11.743)" fill="#4f87fb"/>
    <g id="Group_1393" data-name="Group 1393" transform="translate(331.309 486.331)">
      <path id="Path_4816" data-name="Path 4816" d="M362.091,515.638a1.725,1.725,0,0,1-1.223-.507l-29.987-29.987a1.728,1.728,0,1,1,2.443-2.444l29.989,29.987a1.729,1.729,0,0,1-1.223,2.951Z" transform="translate(-330.375 -482.194)" fill="#f86464"/>
    </g>
    <g id="Group_1394" data-name="Group 1394" transform="translate(324.25 478.095)">
      <path id="Path_4817" data-name="Path 4817" d="M348.162,522.872a23.912,23.912,0,1,1,15.955-41.724,1.728,1.728,0,1,1-2.307,2.574,20.455,20.455,0,1,0,3,27.124,1.728,1.728,0,0,1,2.811,2.012A23.979,23.979,0,0,1,348.162,522.872Z" transform="translate(-324.25 -475.047)" fill="#f86464"/>
    </g>
    <g id="Group_1395" data-name="Group 1395" transform="translate(366.259 494.323)">
      <path id="Path_4818" data-name="Path 4818" d="M368.243,508.829a1.731,1.731,0,0,1-1.7-1.4c-.067-.34-.27-.54-1.044-1.155a10.808,10.808,0,0,1-4.235-6.721c-1.612-6.706.591-9.076,2.048-9.893a4.165,4.165,0,0,1,4.844.532,1.728,1.728,0,0,1-2.444,2.444.813.813,0,0,0-.764.073c-.7.471-1.211,2.336-.322,6.036a7.383,7.383,0,0,0,3.025,4.822,5.244,5.244,0,0,1,2.285,3.2,1.728,1.728,0,0,1-1.363,2.028A1.671,1.671,0,0,1,368.243,508.829Z" transform="translate(-360.704 -489.129)" fill="#263357"/>
    </g>
    <g id="Group_1396" data-name="Group 1396" transform="translate(430.882 494.133)">
      <path id="Path_4819" data-name="Path 4819" d="M418.51,508.855a1.655,1.655,0,0,1-.334-.033,1.727,1.727,0,0,1-1.363-2.028,5.188,5.188,0,0,1,2.406-3.223,7.181,7.181,0,0,0,3.15-4.8c1.015-4.221.4-5.941-.073-6.26-.29-.2-.918-.057-1.49.345a1.728,1.728,0,0,1-1.982-2.831,4.715,4.715,0,0,1,5.42-.371c2.208,1.505,2.708,4.845,1.485,9.926a10.577,10.577,0,0,1-4.433,6.751c-.8.6-1.029.811-1.091,1.125A1.73,1.73,0,0,1,418.51,508.855Z" transform="translate(-416.78 -488.964)" fill="#263357"/>
    </g>
    <g id="Group_1397" data-name="Group 1397" transform="translate(411.225 510.563)">
      <path id="Path_4820" data-name="Path 4820" d="M401.453,536.35a1.729,1.729,0,0,1-.731-3.3c9.7-4.517,16.682-15.12,18.676-28.36a1.729,1.729,0,0,1,3.419.515c-2.167,14.389-9.881,25.969-20.637,30.978A1.707,1.707,0,0,1,401.453,536.35Z" transform="translate(-399.722 -503.222)" fill="#263357"/>
    </g>
    <g id="Group_1398" data-name="Group 1398" transform="translate(372.072 510.563)">
      <path id="Path_4821" data-name="Path 4821" d="M368.786,513.139a1.728,1.728,0,0,1-1.668-1.278,59.448,59.448,0,0,1-1.352-6.651,1.728,1.728,0,1,1,3.418-.515,55.973,55.973,0,0,0,1.272,6.265,1.731,1.731,0,0,1-1.671,2.179Z" transform="translate(-365.747 -503.222)" fill="#263357"/>
    </g>
    <g id="Group_1399" data-name="Group 1399" transform="translate(386.192 505.177)">
      <path id="Path_4822" data-name="Path 4822" d="M386.643,502h-6.914a1.729,1.729,0,1,1,0-3.457h6.914a1.729,1.729,0,1,1,0,3.457Z" transform="translate(-378 -498.547)" fill="#263357"/>
    </g>
    <g id="Group_1400" data-name="Group 1400" transform="translate(410.392 505.177)">
      <path id="Path_4823" data-name="Path 4823" d="M407.643,502h-6.914a1.729,1.729,0,1,1,0-3.457h6.914a1.729,1.729,0,1,1,0,3.457Z" transform="translate(-399 -498.547)" fill="#263357"/>
    </g>
    <g id="Group_1401" data-name="Group 1401" transform="translate(369.02 455.048)">
      <path id="Path_4824" data-name="Path 4824" d="M425.983,502.962a1.739,1.739,0,0,1-.776-.183,24.65,24.65,0,0,1-6.134-4.592c-1.164-1.106-2.169-2.064-2.954-2.148-1.237-.131-2.645-.251-4.171-.379-9.01-.762-21.174-1.79-27.984-7.446l-4.634,3.276a1.728,1.728,0,1,1-1.995-2.822l5.765-4.077a1.729,1.729,0,0,1,2.221.189c5.636,5.636,18.444,6.719,26.918,7.434,1.553.131,2.987.254,4.248.388,1.95.207,3.349,1.54,4.968,3.082a26.308,26.308,0,0,0,3.608,3.02,33.157,33.157,0,0,0-1.488-25.217c-4.7-9.648-16.1-14.838-24.935-14.979-9.542-.152-18.282,4.2-21.4,10.588a1.735,1.735,0,0,1-1.026.888,12.8,12.8,0,0,0-8,6.632c-3.128,6.418-1.077,15.235-.023,18.09a25.541,25.541,0,0,0,2.422,4.857,1.728,1.728,0,0,1-2.861,1.94,28.583,28.583,0,0,1-2.8-5.6c-.043-.118-4.248-11.756.159-20.8a15.983,15.983,0,0,1,9.364-8.177c3.938-7.19,13.79-12.008,24.222-11.874,9.891.157,22.682,6.02,27.988,16.923a36.709,36.709,0,0,1,.907,29.893,1.729,1.729,0,0,1-1.609,1.095Z" transform="translate(-363.099 -455.048)" fill="#263357"/>
    </g>
    <g id="Group_1402" data-name="Group 1402" transform="translate(350.461 534.902)">
      <path id="Path_4825" data-name="Path 4825" d="M358.816,556.835a1.728,1.728,0,0,1-.814-3.254l10.838-5.767-8.448-19.439-10.949,5.013A1.729,1.729,0,1,1,348,530.245l12.551-5.747a1.73,1.73,0,0,1,2.3.884l9.789,22.519a1.728,1.728,0,0,1-.773,2.215l-12.249,6.517A1.729,1.729,0,0,1,358.816,556.835Z" transform="translate(-346.995 -524.342)" fill="#263357"/>
    </g>
    <path id="Path_4826" data-name="Path 4826" d="M355.546,526.1l11.91,28.43-11.569,5.132L338.4,533.421Z" transform="translate(2.157 10.829)" fill="#aa61f2"/>
    <g id="Group_1403" data-name="Group 1403" transform="translate(339.642 534.705)">
      <path id="Path_4827" data-name="Path 4827" d="M357.143,561.494a1.729,1.729,0,0,1-.823-3.251l8.886-4.8L354.234,528.2l-14.18,6.493a1.729,1.729,0,0,1-1.439-3.145l15.782-7.224a1.731,1.731,0,0,1,2.3.883l12.308,28.317a1.728,1.728,0,0,1-.764,2.209l-10.283,5.551A1.727,1.727,0,0,1,357.143,561.494Z" transform="translate(-337.606 -524.171)" fill="#263357"/>
    </g>
    <g id="Group_1404" data-name="Group 1404" transform="translate(398.182 525.762)">
      <path id="Path_4828" data-name="Path 4828" d="M390.135,529.062a1.729,1.729,0,0,1-.719-3.3l6.112-2.791c.338-.182,1.165-1.3.849-2.022a1.637,1.637,0,0,0-2.232-.931,1.729,1.729,0,1,1-1.379-3.171,5.114,5.114,0,0,1,6.782,2.723c1.15,2.647-.763,5.756-2.613,6.561l-6.084,2.777A1.71,1.71,0,0,1,390.135,529.062Z" transform="translate(-388.405 -516.41)" fill="#263357"/>
    </g>
    <g id="Group_1405" data-name="Group 1405" transform="translate(372.548 541.603)">
      <path id="Path_4829" data-name="Path 4829" d="M373.011,548.213a26.432,26.432,0,0,1-5.482-.537,1.728,1.728,0,1,1,.721-3.38c6.078,1.3,13.15-.549,14.175-.832l14.44-7a1.355,1.355,0,0,0,.611-1.815,3.366,3.366,0,0,0-1.563-1.157,1.729,1.729,0,1,1,1.269-3.216,6.486,6.486,0,0,1,3.464,2.994,4.782,4.782,0,0,1-2.338,6.335l-14.51,7.035a1.887,1.887,0,0,1-.262.1A40.866,40.866,0,0,1,373.011,548.213Z" transform="translate(-366.161 -530.156)" fill="#263357"/>
    </g>
    <g id="Group_1406" data-name="Group 1406" transform="translate(363.885 513.06)">
      <path id="Path_4830" data-name="Path 4830" d="M360.374,532.626a1.728,1.728,0,0,1-1.646-2.263,27.115,27.115,0,0,1,3.029-6.335c1.173-1.907,2.157-3.68,3.024-5.243,1.767-3.183,3.041-5.483,4.788-6.806l.115-.09c5.246-4.126,8.91-6.3,10.891-6.481a4.646,4.646,0,0,1,4.739,2.939c.846,2.2-.094,4.622-2.516,6.508l-3.056,3.331c-.1.1-.209.212-.312.324l26.034-11.7a5.127,5.127,0,0,1,4.492.137,5.762,5.762,0,0,1,2.921,3.939c.537,2.627-1.4,5.015-3.5,5.928l-18.307,8.362a1.729,1.729,0,0,1-1.436-3.145l18.336-8.375c.983-.427,1.666-1.374,1.522-2.079a2.275,2.275,0,0,0-1.135-1.566,1.677,1.677,0,0,0-1.5-.038l-28.068,12.618a2.891,2.891,0,0,1-3.583-4.239,16.314,16.314,0,0,1,2.049-2.566l3.1-3.378a1.763,1.763,0,0,1,.234-.211c1.213-.917,1.776-1.891,1.5-2.607a1.2,1.2,0,0,0-1.207-.735c-.728.063-3.456,1.349-9.058,5.755l-.168.13c-1.163.88-2.347,3.017-3.849,5.724-.885,1.6-1.889,3.406-3.136,5.428a24.025,24.025,0,0,0-2.652,5.543A1.728,1.728,0,0,1,360.374,532.626Z" transform="translate(-358.643 -505.388)" fill="#263357"/>
    </g>
    <g id="Group_1407" data-name="Group 1407" transform="translate(397.919 533.237)">
      <path id="Path_4831" data-name="Path 4831" d="M389.907,535.582a1.728,1.728,0,0,1-.719-3.3l6.111-2.792a1.7,1.7,0,0,0,.807-2.162,1.5,1.5,0,0,0-2.182-.8,1.739,1.739,0,0,1-2.27-.89,1.716,1.716,0,0,1,.854-2.263,4.945,4.945,0,0,1,6.742,2.512,5.159,5.159,0,0,1-2.513,6.744l-6.112,2.792A1.725,1.725,0,0,1,389.907,535.582Z" transform="translate(-388.177 -522.897)" fill="#263357"/>
    </g>
    <g id="Group_1408" data-name="Group 1408" transform="translate(407.357 541.958)">
      <path id="Path_4832" data-name="Path 4832" d="M443.341,559.039a1.727,1.727,0,0,1-1.613-1.107,38.32,38.32,0,0,0-28.052-23.9,36.612,36.612,0,0,1-15.285,6.8,1.728,1.728,0,0,1-.592-3.405,33.238,33.238,0,0,0,14.291-6.557,1.74,1.74,0,0,1,1.422-.391,41.76,41.76,0,0,1,31.443,26.2,1.731,1.731,0,0,1-.992,2.234A1.757,1.757,0,0,1,443.341,559.039Z" transform="translate(-396.366 -530.464)" fill="#263357"/>
    </g>
  </g>
</svg>
