<svg xmlns="http://www.w3.org/2000/svg" width="107.186" height="100.453" viewBox="0 0 107.186 100.453">
  <g id="Group_1073" data-name="Group 1073" transform="translate(-115.678 -240.976)">
    <g id="Group_1058" data-name="Group 1058" transform="translate(132.085 271.302)">
      <path id="Path_4416" data-name="Path 4416" d="M139.52,288.708a1.289,1.289,0,0,1-1.262-1.041c-.014-.071-.039-.11-.45-.4a5.984,5.984,0,0,1-2.648-4.031c-.963-4,.11-5.714,1.181-6.444a3.118,3.118,0,0,1,3.566.122,1.288,1.288,0,0,1-1.478,2.111.62.62,0,0,0-.639-.1c-.3.207-.72,1.249-.126,3.713a3.519,3.519,0,0,0,1.626,2.526,3.1,3.1,0,0,1,1.5,2.009,1.293,1.293,0,0,1-1.266,1.537Z" transform="translate(-134.784 -276.292)" fill="#263357"/>
    </g>
    <g id="Group_1059" data-name="Group 1059" transform="translate(170.948 271.303)">
      <path id="Path_4417" data-name="Path 4417" d="M181.332,288.708a1.293,1.293,0,0,1-1.266-1.537,3.1,3.1,0,0,1,1.5-2.009,3.521,3.521,0,0,0,1.626-2.526c.593-2.464.176-3.506-.126-3.713a.621.621,0,0,0-.639.1,1.288,1.288,0,0,1-1.477-2.11,3.119,3.119,0,0,1,3.565-.122c1.071.729,2.144,2.439,1.181,6.445a5.984,5.984,0,0,1-2.648,4.03c-.41.289-.436.327-.45.4A1.289,1.289,0,0,1,181.332,288.708Z" transform="translate(-180.042 -276.292)" fill="#263357"/>
    </g>
    <g id="Group_1060" data-name="Group 1060" transform="translate(135.537 281.141)">
      <path id="Path_4418" data-name="Path 4418" d="M157.8,309.671c-9.215,0-17.2-8.6-18.979-20.442a1.288,1.288,0,0,1,2.548-.383c1.591,10.573,8.5,18.249,16.432,18.249s14.841-7.675,16.432-18.249a1.288,1.288,0,1,1,2.547.383C174.995,301.075,167.013,309.671,157.8,309.671Z" transform="translate(-138.804 -287.75)" fill="#263357"/>
    </g>
    <g id="Group_1061" data-name="Group 1061" transform="translate(143.433 280.108)">
      <path id="Path_4419" data-name="Path 4419" d="M154.44,289.122h-5.152a1.288,1.288,0,1,1,0-2.576h5.152a1.288,1.288,0,1,1,0,2.576Z" transform="translate(-148 -286.546)" fill="#263357"/>
    </g>
    <g id="Group_1062" data-name="Group 1062" transform="translate(158.032 280.108)">
      <path id="Path_4420" data-name="Path 4420" d="M171.44,289.122h-5.152a1.288,1.288,0,1,1,0-2.576h5.152a1.288,1.288,0,1,1,0,2.576Z" transform="translate(-165 -286.546)" fill="#263357"/>
    </g>
    <g id="Group_1063" data-name="Group 1063" transform="translate(148.594 291.75)">
      <path id="Path_4421" data-name="Path 4421" d="M164.595,304.356a1.286,1.286,0,0,1-.777-.262,5.907,5.907,0,0,0-7.741,0,1.288,1.288,0,0,1-1.556-2.053,8.569,8.569,0,0,1,10.853,0,1.289,1.289,0,0,1-.779,2.315Z" transform="translate(-154.01 -300.104)" fill="#263357"/>
    </g>
    <circle id="Ellipse_120" data-name="Ellipse 120" cx="3.864" cy="3.864" r="3.864" transform="translate(188.945 293.848)" fill="#f86464"/>
    <g id="Group_1064" data-name="Group 1064" transform="translate(191.521 266.368)">
      <path id="Path_4422" data-name="Path 4422" d="M205.288,301.46A1.288,1.288,0,0,1,204,300.172V271.834a1.288,1.288,0,1,1,2.576,0v28.338A1.288,1.288,0,0,1,205.288,301.46Z" transform="translate(-204 -270.546)" fill="#f86464"/>
    </g>
    <path id="Path_4423" data-name="Path 4423" d="M150.24,278.191a3.086,3.086,0,0,1-6.172,0c0-1.7,3.086-6.172,3.086-6.172S150.24,276.487,150.24,278.191Z" transform="translate(-4.011 -4.386)" fill="#61c4f2"/>
    <path id="Path_4424" data-name="Path 4424" d="M156.578,272.651a1.991,1.991,0,0,1-3.982,0c0-1.1,1.99-3.982,1.99-3.982S156.578,271.551,156.578,272.651Z" transform="translate(-5.216 -3.913)" fill="#61c4f2"/>
    <path id="Path_4425" data-name="Path 4425" d="M144.489,314.551s10.65,4.5,13.495,4.5c4.5,0,13.495-4.5,13.495-4.5l4.5.9c-1.8,4.5-7.2,9-17.993,9a24.6,24.6,0,0,1-18.893-8.1Z" transform="translate(-3.308 -10.395)" fill="#4f87fb"/>
    <path id="Path_4426" data-name="Path 4426" d="M130.278,320.837s7.175,11.7,25.19,11.7c15.294,0,24.29-11.7,24.29-11.7,6.483,4.556,9.023,10.05,9.9,17.993-3.6,6.3-25.19,12.595-35.985,12.595-10.834,0-28.788-7.2-32.387-12.595A23.922,23.922,0,0,1,130.278,320.837Z" transform="translate(-0.792 -11.283)" fill="#4f87fb"/>
    <g id="Group_1065" data-name="Group 1065" transform="translate(118.488 302.405)">
      <path id="Path_4427" data-name="Path 4427" d="M155.523,351.536c-5.28,0-23.494-.879-36.143-12.2a1.285,1.285,0,0,1-.427-1.039,28.082,28.082,0,0,1,22.879-25.769,1.286,1.286,0,0,1,1.033.268c.057.046,5.729,4.566,12.381,4.566h.191c6.657-.09,11.874-4.5,11.926-4.542a1.3,1.3,0,0,1,1.061-.291A27.993,27.993,0,0,1,191.132,338.3a1.285,1.285,0,0,1-.427,1.039C181.288,347.766,166.249,351.536,155.523,351.536Zm-33.953-13.7c11.95,10.313,28.969,11.124,33.953,11.124,10.057,0,24.053-3.444,32.992-11.125a25.414,25.414,0,0,0-19.972-22.661,23.237,23.237,0,0,1-13.072,4.766c-6.554.073-12.1-3.566-13.742-4.769A25.5,25.5,0,0,0,121.57,337.836Z" transform="translate(-118.95 -312.512)" fill="#263357"/>
    </g>
    <g id="Group_1066" data-name="Group 1066" transform="translate(133.129 324.761)">
      <path id="Path_4428" data-name="Path 4428" d="M137.288,351.427A1.288,1.288,0,0,1,136,350.139v-10.3a1.288,1.288,0,0,1,2.576,0v10.3A1.288,1.288,0,0,1,137.288,351.427Z" transform="translate(-136 -338.546)" fill="#263357"/>
    </g>
    <g id="Group_1067" data-name="Group 1067" transform="translate(172.63 324.761)">
      <path id="Path_4429" data-name="Path 4429" d="M183.288,351.427A1.288,1.288,0,0,1,182,350.139v-10.3a1.288,1.288,0,0,1,2.576,0v10.3A1.288,1.288,0,0,1,183.288,351.427Z" transform="translate(-182 -338.546)" fill="#263357"/>
    </g>
    <g id="Group_1068" data-name="Group 1068" transform="translate(133.529 248.22)">
      <path id="Path_4430" data-name="Path 4430" d="M174.549,278.566a1.284,1.284,0,0,1-.577-.137,14.926,14.926,0,0,1-3.728-2.788c-.635-.6-1.235-1.175-1.618-1.216-1.3-.138-2.431-.215-3.529-.289-3.158-.213-5.653-.38-8.359-1.919a1.288,1.288,0,1,1,1.273-2.239c2.192,1.247,4.208,1.383,7.259,1.588,1.07.072,2.284.154,3.631.3a5.6,5.6,0,0,1,3.118,1.912,17.039,17.039,0,0,0,1.845,1.585,19.54,19.54,0,0,0-.982-14.559c-2.763-5.676-9.478-8.73-14.681-8.812-5.6-.1-10.738,2.456-12.561,6.187a1.285,1.285,0,0,1-.763.661c-7.151,2.3-6.307,8.784-4.774,14.18a1.288,1.288,0,1,1-2.477.705c-.967-3.4-3.878-13.642,5.957-17.166,2.389-4.258,8.161-7.146,14.345-7.146l.314,0c5.991.1,13.739,3.65,16.957,10.26a22.2,22.2,0,0,1,.55,18.077,1.285,1.285,0,0,1-1.2.815Z" transform="translate(-136.467 -249.412)" fill="#263357"/>
    </g>
    <g id="Group_1069" data-name="Group 1069" transform="translate(182.08 257.845)">
      <path id="Path_4431" data-name="Path 4431" d="M203.715,311.278a11.044,11.044,0,0,1-2.107-.2,10.577,10.577,0,0,1-8.326-8.042,10.8,10.8,0,0,1,3.154-10.356V267.917a7.273,7.273,0,0,1,2.719-5.684,7.3,7.3,0,0,1,11.879,5.85v24.6a10.73,10.73,0,0,1-7.319,18.6Zm.009-48.085a4.656,4.656,0,0,0-2.952,1.045,4.706,4.706,0,0,0-1.76,3.679v25.344a1.288,1.288,0,0,1-.468.994,8.228,8.228,0,0,0-2.75,8.212,8.108,8.108,0,0,0,6.3,6.081,8.23,8.23,0,0,0,6.828-1.7,8.159,8.159,0,0,0,0-12.589,1.288,1.288,0,0,1-.468-.994V268.082a4.817,4.817,0,0,0-3.654-4.773A5.131,5.131,0,0,0,203.724,263.193Z" transform="translate(-193.006 -260.621)" fill="#263357"/>
    </g>
    <g id="Group_1070" data-name="Group 1070" transform="translate(162.886 240.976)">
      <path id="Path_4432" data-name="Path 4432" d="M201.484,323.979a1.289,1.289,0,0,1-.42-2.507q.864-.3,1.711-.634a1.288,1.288,0,1,1,.951,2.394q-.9.358-1.823.676A1.274,1.274,0,0,1,201.484,323.979Zm7.41-3.412a1.288,1.288,0,0,1-.651-2.4q.788-.462,1.553-.959a1.288,1.288,0,1,1,1.4,2.161c-.544.353-1.093.693-1.655,1.021A1.277,1.277,0,0,1,208.894,320.567Zm6.6-4.8a1.288,1.288,0,0,1-.856-2.251q.683-.608,1.337-1.245a1.288,1.288,0,0,1,1.8,1.845c-.465.453-.939.895-1.425,1.326A1.281,1.281,0,0,1,215.49,315.765Zm5.532-6a1.288,1.288,0,0,1-1.028-2.064q.551-.73,1.067-1.484a1.288,1.288,0,0,1,2.125,1.456q-.55.8-1.136,1.58A1.285,1.285,0,0,1,221.022,309.766Zm4.25-6.966a1.289,1.289,0,0,1-1.16-1.848q.4-.822.756-1.666a1.288,1.288,0,0,1,2.37,1.011q-.383.9-.8,1.773A1.287,1.287,0,0,1,225.272,302.8Zm2.8-7.67a1.312,1.312,0,0,1-.318-.04,1.288,1.288,0,0,1-.932-1.566q.224-.882.41-1.78a1.288,1.288,0,1,1,2.523.521c-.131.636-.278,1.268-.436,1.894A1.29,1.29,0,0,1,228.067,295.13Zm1.221-8.068-.068,0A1.289,1.289,0,0,1,228,285.706q.049-.907.054-1.826a1.288,1.288,0,0,1,1.288-1.279h.009a1.288,1.288,0,0,1,1.279,1.3q-.006.978-.057,1.944A1.288,1.288,0,0,1,229.288,287.062Zm-.374-8.15a1.288,1.288,0,0,1-1.273-1.1q-.133-.908-.3-1.8a1.288,1.288,0,1,1,2.529-.486q.184.952.323,1.918a1.288,1.288,0,0,1-1.09,1.459A1.243,1.243,0,0,1,228.913,278.912Zm-1.963-7.918a1.288,1.288,0,0,1-1.212-.854c-.207-.575-.423-1.145-.654-1.708a1.288,1.288,0,0,1,2.385-.975q.367.9.695,1.815a1.289,1.289,0,0,1-1.213,1.722Zm-3.488-7.37a1.29,1.29,0,0,1-1.1-.624q-.471-.783-.976-1.543a1.288,1.288,0,1,1,2.145-1.425q.537.806,1.037,1.64a1.287,1.287,0,0,1-1.1,1.953Zm-4.869-6.543a1.284,1.284,0,0,1-.952-.421q-.614-.676-1.261-1.324a1.288,1.288,0,0,1,1.825-1.818q.685.688,1.341,1.407a1.289,1.289,0,0,1-.953,2.155Zm-6.057-5.468a1.281,1.281,0,0,1-.764-.252q-.734-.542-1.5-1.052a1.288,1.288,0,0,1,1.434-2.14q.809.542,1.591,1.119a1.288,1.288,0,0,1-.765,2.325Zm-7.013-4.176a1.292,1.292,0,0,1-.546-.122q-.828-.388-1.674-.738a1.288,1.288,0,1,1,.984-2.38q.9.372,1.784.786a1.289,1.289,0,0,1-.548,2.455Zm-33.581-.646a1.289,1.289,0,0,1-.5-2.476q.9-.377,1.811-.715a1.288,1.288,0,1,1,.89,2.417q-.86.317-1.7.672A1.289,1.289,0,0,1,171.942,246.79Zm25.878-2.067a1.293,1.293,0,0,1-.306-.037q-.885-.215-1.784-.391a1.288,1.288,0,1,1,.494-2.528q.958.185,1.9.416a1.289,1.289,0,0,1-.3,2.54Zm-18.085-.344a1.288,1.288,0,0,1-.253-2.55q.948-.193,1.913-.343a1.288,1.288,0,1,1,.4,2.545q-.907.142-1.8.323A1.312,1.312,0,0,1,179.735,244.379Zm10.007-.792h-.054q-.836-.035-1.681-.034h-.151a1.288,1.288,0,1,1,0-2.576H188c.607,0,1.2.012,1.794.037a1.288,1.288,0,0,1-.052,2.574Z" transform="translate(-170.653 -240.976)" fill="#263357"/>
    </g>
    <g id="Group_1071" data-name="Group 1071" transform="translate(115.678 282.205)">
      <path id="Path_4433" data-name="Path 4433" d="M118.518,321.4a1.278,1.278,0,0,1-.738-.233,4.93,4.93,0,0,1,0-8.076,2.353,2.353,0,0,0,0-3.856,4.93,4.93,0,0,1,0-8.076,2.353,2.353,0,0,0,0-3.856,4.93,4.93,0,0,1,0-8.077,1.288,1.288,0,1,1,1.478,2.11,2.353,2.353,0,0,0,0,3.856,4.93,4.93,0,0,1,0,8.077,2.353,2.353,0,0,0,0,3.856,4.93,4.93,0,0,1,0,8.077,2.352,2.352,0,0,0,0,3.855,1.288,1.288,0,0,1-.74,2.343Z" transform="translate(-115.678 -288.989)" fill="#61c4f2"/>
    </g>
    <g id="Group_1072" data-name="Group 1072" transform="translate(123.312 270.309)">
      <path id="Path_4434" data-name="Path 4434" d="M127.409,307.541a1.276,1.276,0,0,1-.738-.233,4.927,4.927,0,0,1,0-8.076,2.354,2.354,0,0,0,0-3.856,4.928,4.928,0,0,1,0-8.077,2.354,2.354,0,0,0,0-3.856,4.927,4.927,0,0,1,0-8.076,1.288,1.288,0,0,1,1.477,2.111,2.351,2.351,0,0,0,0,3.855,4.93,4.93,0,0,1,0,8.077,2.352,2.352,0,0,0,0,3.856,4.93,4.93,0,0,1,0,8.077,2.351,2.351,0,0,0,0,3.855,1.288,1.288,0,0,1-.739,2.343Z" transform="translate(-124.568 -275.135)" fill="#61c4f2"/>
    </g>
  </g>
</svg>
