<svg xmlns="http://www.w3.org/2000/svg" width="118.912" height="116.965" viewBox="0 0 118.912 116.965">
  <g id="Group_1392" data-name="Group 1392" transform="translate(-119 -242.546)">
    <path id="Path_4797" data-name="Path 4797" d="M227,252.547H216a4,4,0,0,1,0-8h11a4,4,0,0,1,0,8Z" fill="#4f87fb"/>
    <path id="Path_4798" data-name="Path 4798" d="M195,251.547H184a4,4,0,0,1,0-8h11a4,4,0,0,1,0,8Z" fill="#4f87fb"/>
    <g id="Group_1379" data-name="Group 1379">
      <path id="Path_4799" data-name="Path 4799" d="M207,254.546h-3a6,6,0,0,1,0-12h3a6,6,0,0,1,0,12Zm-3-9a3,3,0,0,0,0,6h3a3,3,0,0,0,0-6Z" fill="#263357"/>
    </g>
    <g id="Group_1380" data-name="Group 1380">
      <path id="Path_4800" data-name="Path 4800" d="M205.5,262.546a1.5,1.5,0,0,1-1.5-1.5v-7a1.5,1.5,0,0,1,3,0v7A1.5,1.5,0,0,1,205.5,262.546Z" fill="#263357"/>
    </g>
    <g id="Group_1381" data-name="Group 1381">
      <path id="Path_4801" data-name="Path 4801" d="M195.5,253.546h-11a5.5,5.5,0,0,1,0-11h11a5.5,5.5,0,0,1,0,11Zm-11-8a2.5,2.5,0,0,0,0,5h11a2.5,2.5,0,0,0,0-5Z" fill="#263357"/>
    </g>
    <g id="Group_1382" data-name="Group 1382">
      <path id="Path_4802" data-name="Path 4802" d="M226.5,253.546h-11a5.5,5.5,0,0,1,0-11h11a5.5,5.5,0,0,1,0,11Zm-11-8a2.5,2.5,0,0,0,0,5h11a2.5,2.5,0,0,0,0-5Z" fill="#263357"/>
    </g>
    <g id="Group_1383" data-name="Group 1383">
      <path id="Path_4803" data-name="Path 4803" d="M229.5,278.546h-7a1.5,1.5,0,0,1-1.5-1.5v-18a1.5,1.5,0,0,1,1.5-1.5h7a1.5,1.5,0,0,1,1.5,1.5v18A1.5,1.5,0,0,1,229.5,278.546Zm-5.5-3h4v-15h-4Z" fill="#263357"/>
    </g>
    <g id="Group_1384" data-name="Group 1384">
      <path id="Path_4804" data-name="Path 4804" d="M193.5,287.546a1.5,1.5,0,0,1-1.5-1.5v-5.7a7.8,7.8,0,0,1,7.795-7.8H222.5a1.5,1.5,0,0,1,0,3H199.795a4.8,4.8,0,0,0-4.795,4.8v5.7A1.5,1.5,0,0,1,193.5,287.546Z" fill="#263357"/>
    </g>
    <g id="Group_1385" data-name="Group 1385">
      <path id="Path_4805" data-name="Path 4805" d="M181.5,287.546a1.5,1.5,0,0,1-1.5-1.5v-5.1a20.419,20.419,0,0,1,20.4-20.4h22.1a1.5,1.5,0,0,1,0,3H200.4a17.415,17.415,0,0,0-17.4,17.4v5.1A1.5,1.5,0,0,1,181.5,287.546Z" fill="#263357"/>
    </g>
    <g id="Group_1386" data-name="Group 1386">
      <path id="Path_4806" data-name="Path 4806" d="M192.084,296.546h-9.168A4.921,4.921,0,0,1,178,291.631v-4.585a1.5,1.5,0,0,1,1.5-1.5h16a1.5,1.5,0,0,1,1.5,1.5v4.585A4.921,4.921,0,0,1,192.084,296.546Zm-11.084-8v3.085a1.917,1.917,0,0,0,1.916,1.915h9.168A1.917,1.917,0,0,0,194,291.631v-3.085Z" fill="#263357"/>
    </g>
    <path id="Path_4807" data-name="Path 4807" d="M197.578,322.1a11.123,11.123,0,1,1-22.245,0c0-6.143,11.122-21.234,11.122-21.234S197.578,315.959,197.578,322.1Z" fill="#61c4f2"/>
    <path id="Path_4808" data-name="Path 4808" d="M206.991,322.641c4.466-2.646,9.369-.4,10.387,2.051,1.687,4.069-.86,7.509-8.369,6.649-6.919-.793-12.768,3.7-12.768,3.7S200.551,326.458,206.991,322.641Z" fill="#61c4f2"/>
    <path id="Path_4809" data-name="Path 4809" d="M168.913,307.721c-1.6-2.352-4.6-2.517-5.673-1.535-1.784,1.628-1.66,4.347,2.269,5.666a12.907,12.907,0,0,1,5.819,4.391S171.223,311.114,168.913,307.721Z" fill="#61c4f2"/>
    <rect id="Rectangle_167" data-name="Rectangle 167" width="10" height="28" transform="translate(119 312.547)" fill="#4f87fb"/>
    <g id="Group_1387" data-name="Group 1387">
      <path id="Path_4810" data-name="Path 4810" d="M168.986,339.957a6.426,6.426,0,0,1-4.551-1.855,1.5,1.5,0,1,1,2.13-2.112,3.414,3.414,0,0,0,2.421.967h.006a3.5,3.5,0,0,0,2.452-.976,2.471,2.471,0,0,0,.746-2.085,4.1,4.1,0,0,0-1.211-2.4c-1.239-1.249-2.644-2.688-4.108-4.188-4.465-4.575-11.214-11.489-12.766-12.252a12.038,12.038,0,0,0-7.3-1.61c-.843.054-2.364.324-4.126.636a72.986,72.986,0,0,1-11.908,1.423,1.542,1.542,0,0,1-1.528-1.5,1.5,1.5,0,0,1,1.5-1.5.093.093,0,0,0,.029,0,70.841,70.841,0,0,0,11.383-1.376c1.927-.342,3.448-.612,4.459-.677a14.816,14.816,0,0,1,8.816,1.912c1.875.922,6.6,5.686,13.59,12.848,1.459,1.494,2.858,2.928,4.091,4.171a7.042,7.042,0,0,1,2.067,4.218,5.484,5.484,0,0,1-1.62,4.508A6.514,6.514,0,0,1,169,339.957Z" fill="#263357"/>
    </g>
    <g id="Group_1388" data-name="Group 1388">
      <path id="Path_4811" data-name="Path 4811" d="M167.734,355.206c-2.361,0-5.318-.739-12.689-5.043l-2.9-1.7c-6.16-3.616-11.026-6.473-13.877-7.248a59.478,59.478,0,0,0-7.218-1.1,1.5,1.5,0,0,1,.332-2.982,59.811,59.811,0,0,1,7.673,1.19c3.238.88,8.256,3.826,14.609,7.556l2.889,1.693c8.308,4.852,10.338,4.717,11.967,4.6.684-.054,4.473-1.162,7.816-2.14,2.475-.725,5.281-1.545,7.836-2.246a42.793,42.793,0,0,1,4.8-.981c1.493-.238,2.9-.463,3.231-.9a.945.945,0,0,0,.217-.747,2.373,2.373,0,0,0-.984-1.4c-4.823-3.593-10.035-3.063-15.074-2.551a48.808,48.808,0,0,1-4.871.336c-3.621,0-5.944-2.322-7.06-3.439a69.722,69.722,0,0,0-5.381-4.495c-1.05-.83-2.2-1.74-3.452-2.748a1.5,1.5,0,0,1,1.884-2.335c1.24,1,2.386,1.9,3.428,2.728a70.907,70.907,0,0,1,5.641,4.729c.9.9,2.561,2.56,4.94,2.56,1.409,0,2.943-.155,4.567-.32,5.349-.543,11.41-1.161,17.17,3.129a5.284,5.284,0,0,1,2.163,3.391,3.932,3.932,0,0,1-.8,2.981c-1.056,1.391-2.861,1.679-5.147,2.043a40.061,40.061,0,0,0-4.483.911c-2.531.7-5.324,1.512-7.788,2.233a73.777,73.777,0,0,1-8.454,2.254C168.4,355.19,168.074,355.206,167.734,355.206Z" fill="#263357"/>
    </g>
    <g id="Group_1389" data-name="Group 1389">
      <path id="Path_4812" data-name="Path 4812" d="M129.5,341.546h-9a1.5,1.5,0,0,1,0-3H128v-25h-7.5a1.5,1.5,0,0,1,0-3h9a1.5,1.5,0,0,1,1.5,1.5v28A1.5,1.5,0,0,1,129.5,341.546Z" fill="#263357"/>
    </g>
    <g id="Group_1390" data-name="Group 1390">
      <path id="Path_4813" data-name="Path 4813" d="M184.6,359.511h-.057q-1.134-.044-2.256-.133a1.5,1.5,0,1,1,.239-2.99q1.058.084,2.128.125a1.5,1.5,0,0,1-.054,3Zm7.307-.254a1.5,1.5,0,0,1-.158-2.992q1.063-.114,2.111-.273a1.5,1.5,0,1,1,.453,2.965q-1.114.171-2.244.291A1.476,1.476,0,0,1,191.907,359.257Zm9.308-1.911a1.5,1.5,0,0,1-.441-2.934q1.021-.315,2.022-.671a1.5,1.5,0,1,1,1.007,2.826q-1.062.378-2.146.712A1.51,1.51,0,0,1,201.215,357.346Zm8.776-3.649a1.5,1.5,0,0,1-.707-2.824q.94-.5,1.854-1.041a1.5,1.5,0,0,1,1.527,2.582q-.972.574-1.97,1.106A1.488,1.488,0,0,1,209.991,353.7Zm7.918-5.244a1.5,1.5,0,0,1-.944-2.667q.828-.669,1.626-1.374a1.5,1.5,0,1,1,1.987,2.248q-.848.748-1.727,1.46A1.5,1.5,0,0,1,217.909,348.453Zm6.79-6.644a1.5,1.5,0,0,1-1.144-2.47q.689-.813,1.341-1.656a1.5,1.5,0,0,1,2.373,1.835q-.693.9-1.424,1.76A1.5,1.5,0,0,1,224.7,341.809ZM230.121,334a1.5,1.5,0,0,1-1.307-2.235q.522-.928,1-1.882a1.5,1.5,0,0,1,2.678,1.352q-.512,1.013-1.066,2A1.5,1.5,0,0,1,230.121,334Zm3.846-8.7a1.5,1.5,0,0,1-1.424-1.972q.335-1.008.626-2.037a1.5,1.5,0,0,1,2.886.819q-.309,1.09-.664,2.161A1.5,1.5,0,0,1,233.967,325.3Zm2.117-9.263a1.415,1.415,0,0,1-.194-.013,1.5,1.5,0,0,1-1.295-1.68q.137-1.053.227-2.118a1.5,1.5,0,1,1,2.989.255q-.1,1.131-.241,2.248A1.5,1.5,0,0,1,236.084,316.04Zm.326-9.5a1.5,1.5,0,0,1-1.5-1.411q-.063-1.068-.172-2.123a1.5,1.5,0,0,1,2.984-.308q.115,1.121.183,2.253a1.5,1.5,0,0,1-1.409,1.587Zm-1.458-9.389a1.5,1.5,0,0,1-1.453-1.13q-.264-1.035-.572-2.051a1.5,1.5,0,1,1,2.871-.87q.327,1.08.608,2.179a1.5,1.5,0,0,1-1.454,1.872Zm-3.219-8.942a1.5,1.5,0,0,1-1.357-.86q-.456-.966-.952-1.9a1.5,1.5,0,0,1,2.654-1.4q.526,1,1.011,2.025a1.5,1.5,0,0,1-1.356,2.14Z" fill="#263357"/>
    </g>
    <g id="Group_1391" data-name="Group 1391">
      <path id="Path_4814" data-name="Path 4814" d="M136.5,309.546a1.5,1.5,0,0,1-1.5-1.5,51.559,51.559,0,0,1,51.5-51.5,1.5,1.5,0,0,1,0,3,48.555,48.555,0,0,0-48.5,48.5A1.5,1.5,0,0,1,136.5,309.546Z" fill="#263357"/>
    </g>
  </g>
</svg>
