<svg xmlns="http://www.w3.org/2000/svg" width="119.78" height="119.718" viewBox="0 0 119.78 119.718">
  <defs>
    <style>
      .cls-1 {
        fill: #f86464;
      }

      .cls-2 {
        fill: #4f87fb;
      }

      .cls-3 {
        fill: #fabf62;
      }

      .cls-4 {
        fill: #263357;
      }
    </style>
  </defs>
  <g id="Group_1470" data-name="Group 1470" transform="translate(-522.721 -648.056)">
    <rect id="Rectangle_168" data-name="Rectangle 168" class="cls-1" width="9.484" height="28.979" transform="translate(605.846 683.448) rotate(-41.443)"/>
    <rect id="Rectangle_169" data-name="Rectangle 169" class="cls-2" width="9.484" height="24.844" transform="translate(538.956 705.172) rotate(-138.558)"/>
    <path id="Path_4885" data-name="Path 4885" class="cls-3" d="M584.565,739.528l.138-.127C584.722,739.371,584.565,739.528,584.565,739.528Z"/>
    <g id="Group_1452" data-name="Group 1452">
      <path id="Path_4886" data-name="Path 4886" class="cls-4" d="M611.057,723.881a1.5,1.5,0,0,1-.952-2.66,26.8,26.8,0,0,0,7.59-10.01c1.239-2.49,2.408-4.842,4.854-6.595a1.5,1.5,0,1,1,1.748,2.438c-1.841,1.319-2.756,3.161-3.915,5.492a29.752,29.752,0,0,1-8.376,10.995A1.488,1.488,0,0,1,611.057,723.881Z"/>
    </g>
    <g id="Group_1453" data-name="Group 1453">
      <path id="Path_4887" data-name="Path 4887" class="cls-4" d="M562.691,736.958a4.788,4.788,0,0,1-3.409-1.408l-1.446-1.447a4.831,4.831,0,0,1,0-6.818l5.758-5.757a4.83,4.83,0,0,1,6.817,0l1.446,1.447a4.829,4.829,0,0,1,0,6.818L566.1,735.55A4.788,4.788,0,0,1,562.691,736.958ZM567,723.12a1.806,1.806,0,0,0-1.286.529l-5.759,5.758a1.831,1.831,0,0,0,0,2.575l1.446,1.447a1.873,1.873,0,0,0,2.575,0l5.758-5.758a1.829,1.829,0,0,0,0-2.575l-1.446-1.447A1.81,1.81,0,0,0,567,723.12Z"/>
    </g>
    <g id="Group_1454" data-name="Group 1454">
      <path id="Path_4888" data-name="Path 4888" class="cls-4" d="M556.637,730.816a4.8,4.8,0,0,1-3.408-1.409l-1.448-1.446a4.827,4.827,0,0,1,0-6.817l2.133-2.133a4.825,4.825,0,0,1,6.816,0l1.448,1.447a4.824,4.824,0,0,1,0,6.816l-2.133,2.133A4.8,4.8,0,0,1,556.637,730.816Zm.685-10.214a1.807,1.807,0,0,0-1.287.53l-2.133,2.133a1.823,1.823,0,0,0,0,2.575l1.447,1.446a1.875,1.875,0,0,0,2.574,0l2.133-2.133a1.83,1.83,0,0,0,0-2.574l-1.448-1.447A1.806,1.806,0,0,0,557.322,720.6Z"/>
    </g>
    <g id="Group_1455" data-name="Group 1455">
      <path id="Path_4889" data-name="Path 4889" class="cls-4" d="M579.342,744.454a5.818,5.818,0,0,1-4.813-9.133,5.169,5.169,0,0,1,.636-.795l2.593-2.593a5.872,5.872,0,0,1,7.355-.755c.032.02.062.043.092.065a5.548,5.548,0,0,1,.817.687,6.084,6.084,0,0,1,.667.8,5.813,5.813,0,0,1-.664,7.462l-2.552,2.564a4.842,4.842,0,0,1-.908.722A5.66,5.66,0,0,1,579.342,744.454Zm2.555-11.232a2.838,2.838,0,0,0-2.018.832l-2.556,2.555a2.573,2.573,0,0,0-.277.344,2.861,2.861,0,0,0,.277,3.682,2.908,2.908,0,0,0,3.606.327,2.192,2.192,0,0,0,.423-.33l2.549-2.563.007-.006a2.851,2.851,0,0,0,.324-3.614,3.176,3.176,0,0,0-.331-.4,2.514,2.514,0,0,0-.391-.332c-.026-.017-.05-.035-.075-.053A2.852,2.852,0,0,0,581.9,733.222Z"/>
    </g>
    <g id="Group_1456" data-name="Group 1456">
      <path id="Path_4890" data-name="Path 4890" class="cls-4" d="M568.968,742.968a4.8,4.8,0,0,1-3.408-1.409l-1.448-1.448a4.824,4.824,0,0,1,0-6.816l6.9-6.9a4.827,4.827,0,0,1,6.816,0l1.447,1.448a4.824,4.824,0,0,1,0,6.816l-6.9,6.9A4.808,4.808,0,0,1,568.968,742.968Zm5.451-14.983a1.813,1.813,0,0,0-1.287.533l-6.9,6.9a1.822,1.822,0,0,0,0,2.574l1.448,1.448a1.825,1.825,0,0,0,2.574,0l6.9-6.9a1.822,1.822,0,0,0,0-2.574l-1.447-1.447A1.813,1.813,0,0,0,574.419,727.985Z"/>
    </g>
    <g id="Group_1457" data-name="Group 1457">
      <path id="Path_4891" data-name="Path 4891" class="cls-4" d="M624.064,707.477a1.5,1.5,0,0,1-1.132-.514L603.36,684.509a1.5,1.5,0,0,1,.114-2.087l7.008-6.477a1.5,1.5,0,1,1,2.036,2.2l-5.939,5.489,17.657,20.257,7.312-6.006a1.5,1.5,0,1,1,1.9,2.318l-8.437,6.931A1.5,1.5,0,0,1,624.064,707.477Z"/>
    </g>
    <g id="Group_1458" data-name="Group 1458">
      <path id="Path_4892" data-name="Path 4892" class="cls-4" d="M552.3,722.65a1.5,1.5,0,0,1-.974-.359l-.4-.345a34.863,34.863,0,0,1-2.737-2.466,29.889,29.889,0,0,1-5.552-7.95c-.4-.786-.763-1.55-1.11-2.277a29.437,29.437,0,0,0-1.948-3.68,1.462,1.462,0,0,1-.129-.232l-.029-.023a1.5,1.5,0,0,1,2.4-1.8,3.412,3.412,0,0,1,.3.456,32.8,32.8,0,0,1,2.114,3.986c.337.705.69,1.447,1.079,2.212a27.071,27.071,0,0,0,4.993,7.181,32.471,32.471,0,0,0,2.567,2.308l.4.346a1.5,1.5,0,0,1-.975,2.64Z"/>
    </g>
    <g id="Group_1459" data-name="Group 1459">
      <path id="Path_4893" data-name="Path 4893" class="cls-4" d="M581.3,687a1.494,1.494,0,0,1-.879-.285,13.309,13.309,0,0,0-11.6-1.772c-.309.091-.562.166-.816.23a1.5,1.5,0,0,1-.728-2.91c.21-.053.42-.116.63-.179a16.352,16.352,0,0,1,14.278,2.2A1.5,1.5,0,0,1,581.3,687Z"/>
    </g>
    <g id="Group_1460" data-name="Group 1460">
      <path id="Path_4894" data-name="Path 4894" class="cls-4" d="M602.285,736.75a5.8,5.8,0,0,1-4.132-1.706,1.5,1.5,0,0,1,2.121-2.121,2.927,2.927,0,0,0,4.022,0,1.5,1.5,0,0,1,2.121,2.121A5.8,5.8,0,0,1,602.285,736.75Z"/>
    </g>
    <g id="Group_1461" data-name="Group 1461">
      <path id="Path_4895" data-name="Path 4895" class="cls-4" d="M595.736,742.788a6.079,6.079,0,0,1-4.244-1.629l-5.952-4.96a1.5,1.5,0,0,1,1.92-2.3l6,5c.035.029.068.059.1.091a3.417,3.417,0,0,0,4.46-.054,2.849,2.849,0,0,0,0-4.022l-10.54-9.763a1.5,1.5,0,1,1,2.04-2.2l10.58,9.8a5.862,5.862,0,0,1,.041,8.3A6.232,6.232,0,0,1,595.736,742.788Z"/>
    </g>
    <g id="Group_1462" data-name="Group 1462">
      <path id="Path_4896" data-name="Path 4896" class="cls-4" d="M539.114,707.341a1.5,1.5,0,0,1-.988-.372l-6.614-5.794a1.5,1.5,0,0,1,1.976-2.256L539,703.748,554.4,687.031a1.5,1.5,0,1,1,2.207,2.032l-16.386,17.793A1.493,1.493,0,0,1,539.114,707.341Z"/>
    </g>
    <g id="Group_1463" data-name="Group 1463">
      <path id="Path_4897" data-name="Path 4897" class="cls-4" d="M610.5,723.547a1.5,1.5,0,0,1-1.068-.447l-23.881-24.225a1.593,1.593,0,0,0-2.253-.042c-1.909,1.827-4.621,4.412-6.329,6.041l-1.587,1.514a5.417,5.417,0,0,1-7.661-.173l-.581-.606a5.287,5.287,0,0,1-.458-.563,5.408,5.408,0,0,1,.61-7.09l12.534-11.985a18.268,18.268,0,0,1,2.049-1.7,16.329,16.329,0,0,1,14.219-2.209c3.361,1.019,5.98,1.141,8.235.39a1.5,1.5,0,1,1,.949,2.846c-2.879.959-6.071.843-10.051-.363a13.312,13.312,0,0,0-11.6,1.773,15.2,15.2,0,0,0-1.724,1.427l-12.53,11.981a2.4,2.4,0,0,0-.262,3.163c.022.029.043.06.063.09a1.441,1.441,0,0,0,.166.2l.552.575a2.418,2.418,0,0,0,3.414.082L574.9,702.7c1.707-1.628,4.418-4.212,6.325-6.036a4.619,4.619,0,0,1,6.454.092l.429.429,23.462,23.806a1.5,1.5,0,0,1-1.068,2.553Z"/>
    </g>
    <g id="Group_1464" data-name="Group 1464">
      <path id="Path_4898" data-name="Path 4898" class="cls-4" d="M587.7,744.748a5.285,5.285,0,0,1-1.678-.278,7.471,7.471,0,0,1-3.765-2.58,1.5,1.5,0,0,1,2.469-1.7,4.7,4.7,0,0,0,2.246,1.438c1.859.616,3.225-1.334,3.283-1.418a1.5,1.5,0,0,1,2.49,1.673A6.477,6.477,0,0,1,587.7,744.748Z"/>
    </g>
    <g id="Group_1465" data-name="Group 1465">
      <path id="Path_4899" data-name="Path 4899" class="cls-1" d="M625.39,747.69a1.5,1.5,0,0,1-1.026-.405l-84.038-78.756a1.5,1.5,0,0,1,2.051-2.189L626.415,745.1a1.5,1.5,0,0,1-1.025,2.594Z"/>
    </g>
    <g id="Group_1466" data-name="Group 1466">
      <path id="Path_4900" data-name="Path 4900" class="cls-4" d="M577.685,767.6c-.041,0-.084,0-.127,0q-1.126-.1-2.243-.231a1.5,1.5,0,1,1,.366-2.978q1.059.131,2.129.218a1.5,1.5,0,0,1-.125,2.995Zm-9.376-1.561a1.514,1.514,0,0,1-.368-.046q-1.1-.276-2.177-.592a1.5,1.5,0,1,1,.84-2.881q1.027.3,2.07.565a1.5,1.5,0,0,1-.365,2.954Zm-9.009-3.075a1.5,1.5,0,0,1-.6-.125q-1.035-.453-2.05-.942a1.5,1.5,0,0,1,1.3-2.7q.966.467,1.948.9a1.5,1.5,0,0,1-.6,2.875Zm-8.379-4.5a1.5,1.5,0,0,1-.815-.241q-.945-.612-1.87-1.262a1.5,1.5,0,1,1,1.727-2.453q.876.615,1.774,1.2a1.5,1.5,0,0,1-.816,2.759Zm-7.538-5.8a1.5,1.5,0,0,1-1.009-.39q-.833-.756-1.639-1.543a1.5,1.5,0,0,1,2.1-2.146q.768.749,1.561,1.469a1.5,1.5,0,0,1-1.009,2.61Zm-6.5-6.936a1.5,1.5,0,0,1-1.175-.566q-.7-.881-1.368-1.787a1.5,1.5,0,1,1,2.416-1.779q.634.863,1.3,1.7a1.5,1.5,0,0,1-1.173,2.433Zm-5.291-7.891a1.5,1.5,0,0,1-1.312-.77q-.546-.98-1.057-1.983a1.5,1.5,0,1,1,2.672-1.363q.488.953,1.006,1.885a1.5,1.5,0,0,1-1.309,2.231Zm-3.937-8.644a1.5,1.5,0,0,1-1.411-.993q-.381-1.056-.723-2.134a1.5,1.5,0,0,1,2.86-.908q.325,1.023.685,2.029a1.5,1.5,0,0,1-.9,1.917A1.476,1.476,0,0,1,527.656,729.194Zm-2.474-9.178a1.5,1.5,0,0,1-1.474-1.23q-.2-1.1-.364-2.223a1.5,1.5,0,1,1,2.969-.43q.153,1.062.346,2.112a1.5,1.5,0,0,1-1.205,1.746A1.483,1.483,0,0,1,525.182,720.016Z"/>
    </g>
    <g id="Group_1467" data-name="Group 1467">
      <path id="Path_4901" data-name="Path 4901" class="cls-4" d="M584.5,767.774a1.5,1.5,0,0,1-.048-3,56.89,56.89,0,0,0,55.016-58.7,1.5,1.5,0,1,1,3-.1,59.889,59.889,0,0,1-57.916,61.8Z"/>
    </g>
    <g id="Group_1468" data-name="Group 1468">
      <path id="Path_4902" data-name="Path 4902" class="cls-4" d="M640.345,700.67a1.5,1.5,0,0,1-1.482-1.277q-.159-1.062-.357-2.11a1.5,1.5,0,1,1,2.947-.558q.21,1.1.377,2.222a1.5,1.5,0,0,1-1.261,1.706A1.421,1.421,0,0,1,640.345,700.67Zm-2.173-9.255a1.5,1.5,0,0,1-1.427-1.037q-.332-1.021-.7-2.026a1.5,1.5,0,0,1,2.818-1.029q.386,1.055.734,2.129a1.5,1.5,0,0,1-1.427,1.963Zm-3.653-8.77a1.5,1.5,0,0,1-1.334-.81q-.492-.953-1.017-1.881a1.5,1.5,0,1,1,2.611-1.477q.552.978,1.071,1.977a1.5,1.5,0,0,1-1.331,2.191Zm-5.035-8.057a1.5,1.5,0,0,1-1.2-.605q-.639-.858-1.309-1.69a1.5,1.5,0,0,1,2.338-1.881q.7.876,1.377,1.78a1.5,1.5,0,0,1-1.2,2.4Zm-6.276-7.139a1.491,1.491,0,0,1-1.043-.422q-.77-.744-1.566-1.459a1.5,1.5,0,1,1,2-2.232q.837.753,1.648,1.535a1.5,1.5,0,0,1-1.043,2.578Zm-7.348-6.035a1.491,1.491,0,0,1-.853-.268q-.882-.61-1.782-1.187a1.5,1.5,0,1,1,1.615-2.527q.951.606,1.876,1.25a1.5,1.5,0,0,1-.856,2.732Zm-8.23-4.769a1.5,1.5,0,0,1-.644-.145q-.965-.461-1.952-.883a1.5,1.5,0,0,1,1.186-2.756q1.037.447,2.055.93a1.5,1.5,0,0,1-.645,2.854Zm-8.9-3.366a1.524,1.524,0,0,1-.414-.057q-1.031-.3-2.074-.553a1.5,1.5,0,1,1,.717-2.914q1.1.27,2.183.582a1.5,1.5,0,0,1-.412,2.942Zm-9.327-1.864a1.533,1.533,0,0,1-.177-.01q-1.059-.125-2.127-.207a1.5,1.5,0,0,1,.231-2.99q1.129.087,2.246.217a1.5,1.5,0,0,1-.173,2.99Z"/>
    </g>
    <g id="Group_1469" data-name="Group 1469">
      <path id="Path_4903" data-name="Path 4903" class="cls-4" d="M524.251,711.31a1.5,1.5,0,0,1-1.5-1.452,59.956,59.956,0,0,1,57.915-61.8,1.5,1.5,0,0,1,.1,3,56.953,56.953,0,0,0-55.015,58.7,1.5,1.5,0,0,1-1.45,1.548Z"/>
    </g>
  </g>
</svg>
