<svg xmlns="http://www.w3.org/2000/svg" xmlns:xlink="http://www.w3.org/1999/xlink" width="681.641" height="433.034" viewBox="0 0 681.641 433.034">
  <defs>
    <style>
      .cls-1 {
        fill: #abc6ff;
      }

      .cls-2 {
        fill: #e7725e;
      }

      .cls-3 {
        clip-path: url(#clip-path);
      }

      .cls-4 {
        fill: #d85645;
      }

      .cls-5 {
        fill: #eaac98;
      }

      .cls-6 {
        clip-path: url(#clip-path-2);
      }

      .cls-7 {
        fill: #fff;
      }

      .cls-8 {
        clip-path: url(#clip-path-3);
      }

      .cls-9 {
        fill: #e1ecf4;
      }

      .cls-10 {
        fill: #ccdeed;
      }

      .cls-11 {
        fill: #4f87fb;
      }

      .cls-12 {
        fill: #f6c3b0;
      }

      .cls-13 {
        clip-path: url(#clip-path-4);
      }

      .cls-14 {
        fill: #115456;
      }

      .cls-15 {
        clip-path: url(#clip-path-5);
      }

      .cls-16 {
        fill: #ca7b77;
      }

      .cls-17 {
        fill: #4160cc;
      }

      .cls-18 {
        clip-path: url(#clip-path-6);
      }

      .cls-19 {
        fill: #244aa0;
      }

      .cls-20 {
        clip-path: url(#clip-path-7);
      }

      .cls-21 {
        clip-path: url(#clip-path-8);
      }

      .cls-22 {
        fill: #fd9c89;
      }

      .cls-23 {
        fill: none;
      }
    </style>
    <clipPath id="clip-path">
      <path id="Path_4061" data-name="Path 4061" d="M695.806,1970s7.407-20.611,54.183-18.115,74.714,53.056,75.559,89.97,3.381,46.656,15.5,83.892,19.645,67.991-13.324,111.708S639.328,2278.68,634.9,2178.727c0-36.229,29.185-71.855,25.361-111.869S663.6,1970.366,695.806,1970Z" transform="translate(-634.9 -1951.679)"/>
    </clipPath>
    <clipPath id="clip-path-2">
      <path id="Path_4069" data-name="Path 4069" d="M773.177,2309.14l2.576,32.285s-41.946,16.625-58.853,31.761c0,0,9.218,107.884,20.45,151.239l-15.015,50.037,136.1,1.892-15.176-51.929s22.02-101.845,24.073-148.743c0,0-26.287-21.778-59.376-33.291l-1.006-33.291Z" transform="translate(-716.9 -2309.1)"/>
    </clipPath>
    <clipPath id="clip-path-3">
      <path id="Path_4065" data-name="Path 4065" d="M715.941,2350.5l14.009,11.392,23.831,49.434,26.246-48.024,69.6,32.325s-21.255,213.956-19.322,212.99-168.146,10.99-168.146,10.99l-9.46-221.082,11.634-32.325Z" transform="translate(-652.7 -2350.5)"/>
    </clipPath>
    <clipPath id="clip-path-4">
      <path id="Path_4072" data-name="Path 4072" d="M824.61,2024.5h1.61a51.987,51.987,0,0,1,52.01,52.01v24.958a51.987,51.987,0,0,1-52.01,52.01h-1.61a51.987,51.987,0,0,1-52.01-52.01v-24.958A51.961,51.961,0,0,1,824.61,2024.5Z" transform="translate(-772.6 -2024.5)"/>
    </clipPath>
    <clipPath id="clip-path-5">
      <path id="Path_4076" data-name="Path 4076" d="M776.345,2024.594s-8.172,29.386-45.086,38.846c0,0-8.454-54.425,30.715-63.04,0,0,13.526-25.562,60.906-9.7s39.168,68.595,39.168,68.595S835,2072.659,776.345,2024.594Z" transform="translate(-730.491 -1985.511)"/>
    </clipPath>
    <clipPath id="clip-path-6">
      <path id="Path_4084" data-name="Path 4084" d="M669.552,2413.517l56.277,120.041a4.87,4.87,0,0,1-2.335,6.441,4.573,4.573,0,0,1-1.449.4l-75.277,10.507a5.007,5.007,0,0,1-4.911-2.295l-70.084-114.687a4.874,4.874,0,0,1,1.61-6.642,5.284,5.284,0,0,1,1.731-.644l89.125-15.861A4.916,4.916,0,0,1,669.552,2413.517Z" transform="translate(-571.08 -2410.698)"/>
    </clipPath>
    <clipPath id="clip-path-7">
      <path id="Path_4088" data-name="Path 4088" d="M1243.344,2452.237c-7.93-6.28-14.331.242-20.087,7.246l-.845.966-56.236,58.531-25-18.115a16.611,16.611,0,0,0-23.026,3.462h0a16.066,16.066,0,0,0,3.261,22.5,1.7,1.7,0,0,0,.281.2l37.719,27.333.363.282h0a19.951,19.951,0,0,0,1.892,1.329h0a16.8,16.8,0,0,0,10.547,3.14,16.5,16.5,0,0,0,11.875-4.67,17.807,17.807,0,0,0,1.57-1.892l56.357-80.108a7.419,7.419,0,0,1,.684-.886C1248.295,2464.515,1251.314,2458.558,1243.344,2452.237Z" transform="translate(-1114.949 -2449.702)"/>
    </clipPath>
    <clipPath id="clip-path-8">
      <path id="Path_4092" data-name="Path 4092" d="M1138.786,2525.986s-5.958,16.988-13,23.71c-5.273,4.991-16.625,10.1-16.625,10.1l-39.41-28.46s-4.307-40.738,4.026-53.016a15.365,15.365,0,0,1,3.744-3.824Z" transform="translate(-1068.635 -2474.5)"/>
    </clipPath>
  </defs>
  <g id="lady_doctor" data-name="lady doctor" transform="translate(-175.5 -1951.679)">
    <path id="Path_4058" data-name="Path 4058" class="cls-1" d="M353.894,2282.074c30.916-26.729,16.223-106.435,109.011-123.382s93.03,58.128,209.166,51.527,136.224,96.049,97.5,159.853,58.813,86.549-11.916,128.333H337.833S229.224,2389.878,353.894,2282.074Z" transform="translate(-70.792 -122.187)"/>
    <path id="Path_4059" data-name="Path 4059" class="cls-2" d="M695.806,1970s7.407-20.611,54.183-18.115,74.714,53.056,75.559,89.97,3.381,46.656,15.5,83.892,19.645,67.991-13.324,111.708S639.328,2278.68,634.9,2178.727c0-36.229,29.185-71.855,25.361-111.869S663.6,1970.366,695.806,1970Z" transform="translate(-274.468 0)"/>
    <g id="Group_955" data-name="Group 955" transform="translate(360.432 1951.679)">
      <g id="Group_954" data-name="Group 954" class="cls-3">
        <path id="Path_4060" data-name="Path 4060" class="cls-4" d="M763.8,2256.744s22.5-28.541,20.691-68.877,92.748-75.317,94.6-55.351,1.489,62.114,11.915,88.8,17.109,64.086,17.109,64.086l-86.267-2.295Z" transform="translate(-711.911 -2056.265)"/>
      </g>
    </g>
    <path id="Path_4062" data-name="Path 4062" class="cls-5" d="M773.177,2309.14l2.576,32.285s-41.946,16.625-58.853,31.761c0,0,9.218,107.884,20.45,151.239l-15.015,50.037,136.1,1.892-15.176-51.929s22.02-101.845,24.073-148.743c0,0-26.287-21.778-59.376-33.291l-1.006-33.291Z" transform="translate(-323.458 -213.54)"/>
    <g id="Group_959" data-name="Group 959" transform="translate(393.442 2095.559)">
      <g id="Group_958" data-name="Group 958" class="cls-6" transform="translate(0 0)">
        <path id="Path_4063" data-name="Path 4063" class="cls-7" d="M715.941,2350.5l14.009,11.392,23.831,49.434,26.246-48.024,69.6,32.325s-21.255,213.956-19.322,212.99-168.146,10.99-168.146,10.99l-9.46-221.082,11.634-32.325Z" transform="translate(-678.544 -2333.834)"/>
        <g id="Group_957" data-name="Group 957" transform="translate(-25.844 16.666)">
          <g id="Group_956" data-name="Group 956" class="cls-8">
            <path id="Path_4064" data-name="Path 4064" class="cls-9" d="M701.343,2631.724s-2.455,4.911,17.632,3.623,68.514-7.648,75.64-11.07-2.5-14.009-8.776-24.918-30.111-53.459-30.111-53.459L678.8,2588.571Z" transform="translate(-668.293 -2467.241)"/>
          </g>
        </g>
        <path id="Path_4066" data-name="Path 4066" class="cls-10" d="M894.067,2717.537h0c-.886-.041-1.61-1.167-1.57-2.617l2.254-215.486-.644-13.2c-.08-1.409.6-2.657,1.449-2.738s1.65.966,1.691,2.375l.644,13.325v.241l-2.254,215.607C895.6,2716.409,894.913,2717.537,894.067,2717.537Z" transform="translate(-821.809 -2413.288)"/>
        <path id="Path_4067" data-name="Path 4067" class="cls-11" d="M838.824,2374.633l7.487,2.778,16.384,34.781,15.861-33.774,14.411-9.017-4.066,13.043L862.7,2431.191,835,2378.417Z" transform="translate(-787.459 -2345.125)"/>
        <path id="Path_4068" data-name="Path 4068" class="cls-10" d="M955.788,2585.242l30.151-.242s3.623,30.916-15.7,31.4S955.788,2585.242,955.788,2585.242Z" transform="translate(-859.296 -2473.936)"/>
      </g>
    </g>
    <ellipse id="Ellipse_46" data-name="Ellipse 46" class="cls-5" cx="14.814" cy="14.572" rx="14.814" ry="14.572" transform="translate(401.211 2045.482)"/>
    <ellipse id="Ellipse_47" data-name="Ellipse 47" class="cls-5" cx="14.814" cy="14.572" rx="14.814" ry="14.572" transform="translate(506.518 2045.482)"/>
    <path id="Path_4070" data-name="Path 4070" class="cls-12" d="M824.61,2024.5h1.61a51.987,51.987,0,0,1,52.01,52.01v24.958a51.987,51.987,0,0,1-52.01,52.01h-1.61a51.987,51.987,0,0,1-52.01-52.01v-24.958A51.961,51.961,0,0,1,824.61,2024.5Z" transform="translate(-356.736 -43.506)"/>
    <g id="Group_961" data-name="Group 961" transform="translate(415.864 1980.993)">
      <g id="Group_960" data-name="Group 960" class="cls-13" transform="translate(0 0)">
        <path id="Path_4071" data-name="Path 4071" class="cls-5" d="M766.05,2108.435s28.944-9.943,33.331-32.2c0,0,15.659,16.062,44.522,26.569s32.647,6.118,32.647,6.118l.08-8.856-80.51-41.261L764.4,2095.311Z" transform="translate(-767.701 -2044.992)"/>
      </g>
    </g>
    <path id="Path_4073" data-name="Path 4073" class="cls-14" d="M961.491,2159.843a1.324,1.324,0,0,1-.765-.241c-7.206-5.676-16.5-2.7-16.585-2.657a1.2,1.2,0,0,1-1.53-.765h0a1.217,1.217,0,0,1,.765-1.53c.443-.161,10.627-3.462,18.88,3.059a1.211,1.211,0,0,1,.2,1.691A1.286,1.286,0,0,1,961.491,2159.843Z" transform="translate(-458.274 -120.681)"/>
    <path id="Path_4074" data-name="Path 4074" class="cls-2" d="M776.345,2024.594s-8.172,29.386-45.086,38.846c0,0-8.454-54.425,30.715-63.04,0,0,13.526-25.562,60.906-9.7s39.168,68.595,39.168,68.595S835,2072.659,776.345,2024.594Z" transform="translate(-331.578 -20.213)"/>
    <g id="Group_963" data-name="Group 963" transform="translate(398.913 1965.298)">
      <g id="Group_962" data-name="Group 962" class="cls-15" transform="translate(0 0)">
        <path id="Path_4075" data-name="Path 4075" class="cls-4" d="M773.805,2081.461,773,2080.5s24.314-32.969,15.86-56c0,0,30.715,32.808,60.866,46.253s33.13,13.083,33.13,13.083l-5.837,5.475-70.97-32.929-31.278,26.407Z" transform="translate(-755.888 -2008.805)"/>
      </g>
    </g>
    <path id="Path_4077" data-name="Path 4077" class="cls-14" d="M833.992,2180.9h1.449a4.991,4.991,0,0,1,4.992,4.991v3.542a4.991,4.991,0,0,1-4.992,4.991h-1.449a4.991,4.991,0,0,1-4.992-4.991v-3.542A4.991,4.991,0,0,1,833.992,2180.9Z" transform="translate(-390.432 -136.948)"/>
    <path id="Path_4078" data-name="Path 4078" class="cls-14" d="M952.591,2180.9h1.449a4.991,4.991,0,0,1,4.992,4.991v3.542a4.991,4.991,0,0,1-4.992,4.991h-1.449a4.991,4.991,0,0,1-4.992-4.991v-3.542A5.017,5.017,0,0,1,952.591,2180.9Z" transform="translate(-461.29 -136.948)"/>
    <path id="Path_4079" data-name="Path 4079" class="cls-16" d="M852.6,2247.888a3.437,3.437,0,0,0-3.5,3.422,3.715,3.715,0,0,0,.282,1.449,22.675,22.675,0,0,0,41.342,0,3.468,3.468,0,0,0-1.771-4.589,3.018,3.018,0,0,0-1.449-.282Z" transform="translate(-402.441 -176.965)"/>
    <path id="Path_4080" data-name="Path 4080" class="cls-5" d="M590.31,2661.01h0a17.69,17.69,0,0,1-6.562-24.113c.04-.08.121-.2.161-.282l27.655-46.213a18.229,18.229,0,0,1,24.757-6.28h0a17.652,17.652,0,0,1,6.562,24.072c-.04.081-.121.2-.161.282l-27.655,46.253A18.247,18.247,0,0,1,590.31,2661.01Z" transform="translate(-242.518 -376.372)"/>
    <path id="Path_4081" data-name="Path 4081" class="cls-7" d="M660.981,2538.606l-12.157,24.6s-26.448,14.371-38.524-15.458l42.872-79.544s5.233,3.341,8.776,18.678S660.981,2538.606,660.981,2538.606Z" transform="translate(-259.77 -308.594)"/>
    <path id="Path_4082" data-name="Path 4082" class="cls-17" d="M669.552,2413.517l56.277,120.041a4.87,4.87,0,0,1-2.335,6.441,4.573,4.573,0,0,1-1.449.4l-75.277,10.507a5.007,5.007,0,0,1-4.911-2.295l-70.084-114.687a4.874,4.874,0,0,1,1.61-6.642,5.284,5.284,0,0,1,1.731-.644l89.125-15.861A4.916,4.916,0,0,1,669.552,2413.517Z" transform="translate(-236.339 -274.24)"/>
    <g id="Group_965" data-name="Group 965" transform="translate(334.742 2136.458)">
      <g id="Group_964" data-name="Group 964" class="cls-18" transform="translate(0 0)">
        <path id="Path_4083" data-name="Path 4083" class="cls-19" d="M712.58,2630.365s-1.489,10.386,8.333,6.159,71.695-51.889,71.695-51.889l-8.937-11.835Z" transform="translate(-655.571 -2507.546)"/>
      </g>
    </g>
    <path id="Path_4085" data-name="Path 4085" class="cls-12" d="M585.082,2655h0c-5.072-7.528-4.187-17.028,1.731-22.3a12.581,12.581,0,0,1,2.737-1.852l80.229-43.8a9.1,9.1,0,0,0,1.047-.645c7.286-4.75,15.015-8.856,20.409-.885h0c5.394,8.01.886,12.6-6.28,17.35-.282.2-.6.4-.886.6l-74.834,56.921a12.777,12.777,0,0,1-1.973,1.288C599.976,2665.546,590.315,2662.729,585.082,2655Z" transform="translate(-242.724 -375.997)"/>
    <path id="Path_4086" data-name="Path 4086" class="cls-12" d="M1243.344,2452.237c-7.93-6.28-14.331.242-20.087,7.246l-.845.966-56.236,58.531-25-18.115a16.611,16.611,0,0,0-23.026,3.462h0a16.066,16.066,0,0,0,3.261,22.5,1.7,1.7,0,0,0,.281.2l37.719,27.333.363.282h0a19.951,19.951,0,0,0,1.892,1.329h0a16.8,16.8,0,0,0,10.547,3.14,16.5,16.5,0,0,0,11.875-4.67,17.807,17.807,0,0,0,1.57-1.892l56.357-80.108a7.419,7.419,0,0,1,.684-.886C1248.295,2464.515,1251.314,2458.558,1243.344,2452.237Z" transform="translate(-561.272 -297.543)"/>
    <g id="Group_967" data-name="Group 967" transform="translate(553.677 2152.159)">
      <g id="Group_966" data-name="Group 966" class="cls-20" transform="translate(0)">
        <path id="Path_4087" data-name="Path 4087" class="cls-5" d="M1189.516,2604.843s-10.909,22.5-4.71,27.011,14.411,7.81,21.979,1.731,33.613-34.58,33.613-34.58l-35.344,52.332-26.931-3.583-25.924-22.7L1182.754,2598Z" transform="translate(-1137.205 -2538.303)"/>
      </g>
    </g>
    <path id="Path_4089" data-name="Path 4089" class="cls-12" d="M807.984,2536.767s-3.059-8.776.241-17.43,8.776-5.112,13.606-8.816,5.153-21.375,22.583-8.816c11.755,8.454,6.441,22.986,2.7,30.634-3.261,6.682-23.67,17.39-23.67,17.39Z" transform="translate(-377.105 -325.957)"/>
    <path id="Path_4090" data-name="Path 4090" class="cls-7" d="M1138.786,2525.986s-5.958,16.988-13,23.71c-5.273,4.991-16.625,10.1-16.625,10.1l-39.41-28.46s-4.307-40.738,4.026-53.016a15.365,15.365,0,0,1,3.744-3.824Z" transform="translate(-533.602 -312.358)"/>
    <g id="Group_969" data-name="Group 969" transform="translate(535.033 2162.142)">
      <g id="Group_968" data-name="Group 968" class="cls-21" transform="translate(0 0)">
        <path id="Path_4091" data-name="Path 4091" class="cls-10" d="M1065.864,2530.229s-3.623-33.653,2.174-50.641,7.246-12,7.246-12l-8.172-1.892-8.212,26.729.725,24.113,2.657,14.371Z" transform="translate(-1062.819 -2469.242)"/>
      </g>
    </g>
    <path id="Path_4093" data-name="Path 4093" class="cls-12" d="M1406.487,2418.336l-10.587-14.573s12.439-19.041,16.907-23.751,21.979-18.638,28.018-17.35-6.562,11.513-9.983,14.613-8.011,8.172,4.187,4.307,16.384-12.278,22.825-15.82,14.693-7.85,10.869,1.53-13.566,24.354-15.055,30.433S1406.487,2418.336,1406.487,2418.336Z" transform="translate(-729.126 -244.923)"/>
    <path id="Path_4094" data-name="Path 4094" class="cls-14" d="M813.388,2159.865a1.286,1.286,0,0,1-.966-.443,1.214,1.214,0,0,1,.2-1.691c8.252-6.521,18.437-3.18,18.88-3.06a1.209,1.209,0,1,1-.765,2.294h0c-.121-.04-9.379-3.019-16.585,2.657A1.324,1.324,0,0,1,813.388,2159.865Z" transform="translate(-380.376 -120.703)"/>
    <ellipse id="Ellipse_48" data-name="Ellipse 48" class="cls-22" cx="6.763" cy="6.642" rx="6.763" ry="6.642" transform="translate(426.25 2061.625)"/>
    <ellipse id="Ellipse_49" data-name="Ellipse 49" class="cls-22" cx="6.763" cy="6.642" rx="6.763" ry="6.642" transform="translate(497.743 2061.625)"/>
    <rect id="Rectangle_12" data-name="Rectangle 12" class="cls-10" width="37.639" height="10.466" transform="translate(418.279 2320.707)"/>
    <rect id="Rectangle_13" data-name="Rectangle 13" class="cls-10" width="37.639" height="10.466" transform="translate(478.138 2320.707)"/>
    <path id="Path_4095" data-name="Path 4095" class="cls-11" d="M190.918,2950.8H841.723a15.419,15.419,0,0,1,15.418,15.418h0a15.419,15.419,0,0,1-15.418,15.418H190.918a15.419,15.419,0,0,1-15.418-15.418h0A15.419,15.419,0,0,1,190.918,2950.8Z" transform="translate(0 -596.922)"/>
    <path id="Path_4155" data-name="Path 4155" class="cls-7" d="M884.889,2253.737c1.328,0,8.534.121,9.1-5.837H864.6c.161,2.415,1.328,5.837,8.615,5.837" transform="translate(-411.701 -176.977)"/>
    <path id="Path_4192" data-name="Path 4192" class="cls-11" d="M1630.03,2706.185v11.352a6.417,6.417,0,0,1-6.441,6.36h-8.454a6.391,6.391,0,0,1-6.441-6.36v-11.312a6.417,6.417,0,0,0-6.441-6.36h-11.513a6.391,6.391,0,0,1-6.441-6.361v-8.413a6.417,6.417,0,0,1,6.441-6.36h11.473a6.391,6.391,0,0,0,6.441-6.36h0v-11.312a6.417,6.417,0,0,1,6.441-6.36h8.494a6.391,6.391,0,0,1,6.441,6.36v11.271a6.417,6.417,0,0,0,6.441,6.36h11.513a6.391,6.391,0,0,1,6.441,6.36v8.374a6.417,6.417,0,0,1-6.441,6.36h-11.473a6.513,6.513,0,0,0-6.481,6.4Z" transform="translate(-841.685 -420.018)"/>
    <path id="Path_4193" data-name="Path 4193" class="cls-11" d="M1579.853,2544.784v4.428a2.449,2.449,0,0,1-2.5,2.456h-3.3a2.474,2.474,0,0,1-2.5-2.456h0v-4.388a2.449,2.449,0,0,0-2.5-2.456H1564.6a2.474,2.474,0,0,1-2.5-2.455v-3.261a2.449,2.449,0,0,1,2.5-2.456h4.468a2.474,2.474,0,0,0,2.5-2.456v-4.387a2.449,2.449,0,0,1,2.5-2.456h3.3a2.474,2.474,0,0,1,2.5,2.456v4.387a2.449,2.449,0,0,0,2.5,2.456h4.468a2.474,2.474,0,0,1,2.5,2.456v3.261a2.448,2.448,0,0,1-2.5,2.455h-4.468a2.416,2.416,0,0,0-2.5,2.416Z" transform="translate(-828.422 -342.468)"/>
    <path id="Path_4194" data-name="Path 4194" class="cls-11" d="M434.852,2600.584v4.428a2.449,2.449,0,0,1-2.5,2.455h-3.3a2.474,2.474,0,0,1-2.5-2.455v-4.388a2.449,2.449,0,0,0-2.5-2.455H419.6a2.474,2.474,0,0,1-2.5-2.456v-3.26a2.449,2.449,0,0,1,2.5-2.456h4.468a2.474,2.474,0,0,0,2.5-2.456h0v-4.388a2.449,2.449,0,0,1,2.5-2.456h3.3a2.474,2.474,0,0,1,2.5,2.456v4.388a2.449,2.449,0,0,0,2.5,2.456h4.468a2.474,2.474,0,0,1,2.5,2.456v3.26a2.449,2.449,0,0,1-2.5,2.456h-4.468a2.438,2.438,0,0,0-2.5,2.415Z" transform="translate(-144.343 -375.806)"/>
    <path id="Path_4195" data-name="Path 4195" class="cls-11" d="M1728.668,2461.09v7.367a4.115,4.115,0,0,1-4.187,4.106h-5.475a4.167,4.167,0,0,1-4.187-4.106v-7.326a4.115,4.115,0,0,0-4.186-4.106h-7.447a4.166,4.166,0,0,1-4.187-4.106h0v-5.435a4.115,4.115,0,0,1,4.187-4.106h7.447a4.166,4.166,0,0,0,4.186-4.106h0v-7.367a4.115,4.115,0,0,1,4.187-4.106h5.515a4.167,4.167,0,0,1,4.187,4.106h0v7.326a4.115,4.115,0,0,0,4.186,4.106h7.447a4.167,4.167,0,0,1,4.187,4.106v5.435a4.115,4.115,0,0,1-4.187,4.106h-7.447a4.125,4.125,0,0,0-4.227,4.106Z" transform="translate(-910.212 -284.456)"/>
    <path id="Path_4196" data-name="Path 4196" class="cls-11" d="M312.741,2390.652v10.225a5.79,5.79,0,0,1-5.8,5.756h-7.608a5.729,5.729,0,0,1-5.8-5.716h0v-10.185a5.755,5.755,0,0,0-5.8-5.716H277.4a5.755,5.755,0,0,1-5.8-5.716v-7.568a5.755,5.755,0,0,1,5.8-5.716h10.346a5.73,5.73,0,0,0,5.8-5.716v-10.185a5.755,5.755,0,0,1,5.8-5.716h7.648a5.73,5.73,0,0,1,5.8,5.716v10.144a5.755,5.755,0,0,0,5.8,5.716h10.346a5.755,5.755,0,0,1,5.8,5.716v7.528a5.755,5.755,0,0,1-5.8,5.716H318.578A5.843,5.843,0,0,0,312.741,2390.652Z" transform="translate(-57.415 -234.629)"/>
    <path id="Path_4197" data-name="Path 4197" class="cls-23" d="M889.927,2219.714s-4.106-7.447,4.388-5.636" transform="translate(-426.241 -156.6)"/>
  </g>
</svg>
