<svg xmlns="http://www.w3.org/2000/svg" width="139.007" height="119.991" viewBox="0 0 139.007 119.991">
  <defs>
    <style>
      .cls-1 {
        fill: #4f87fb;
      }

      .cls-2 {
        fill: #263357;
      }

      .cls-3 {
        fill: #f86464;
      }
    </style>
  </defs>
  <g id="Group_1451" data-name="Group 1451" transform="translate(-525.993 -250.546)">
    <path id="Path_4855" data-name="Path 4855" class="cls-1" d="M642.495,344.295c-1.855-2.207-4.835-2.363-6.868-1.928A13.621,13.621,0,0,0,625,325.208v27.727h18.224a7.084,7.084,0,0,0,.991-3.647A7.393,7.393,0,0,0,642.495,344.295Z" transform="translate(18.616 14.038)"/>
    <path id="Path_4856" data-name="Path 4856" class="cls-1" d="M626.143,252.547H552.486l-2.376,10.692h78.41Z" transform="translate(4.535 0.376)"/>
    <g id="Group_1432" data-name="Group 1432" transform="translate(528.377 366.972)">
      <path id="Path_4857" data-name="Path 4857" class="cls-2" d="M662.841,352.11H529.782a1.782,1.782,0,0,1,0-3.564H662.841a1.782,1.782,0,0,1,0,3.564Z" transform="translate(-528 -348.546)"/>
    </g>
    <g id="Group_1433" data-name="Group 1433" transform="translate(641.24 320.639)">
      <path id="Path_4858" data-name="Path 4858" class="cls-2" d="M624.782,357.067A1.782,1.782,0,0,1,623,355.285V311.328a1.782,1.782,0,0,1,3.564,0v43.957A1.782,1.782,0,0,1,624.782,357.067Z" transform="translate(-623 -309.546)"/>
    </g>
    <g id="Group_1434" data-name="Group 1434" transform="translate(628.171 275.427)">
      <path id="Path_4859" data-name="Path 4859" class="cls-2" d="M626.85,290.565a1.782,1.782,0,0,1-1.782-1.782v-9.511l-11.9-4.326a1.782,1.782,0,1,1,1.219-3.349l13.068,4.752a1.781,1.781,0,0,1,1.173,1.674v10.76A1.782,1.782,0,0,1,626.85,290.565Z" transform="translate(-612 -271.489)"/>
    </g>
    <g id="Group_1435" data-name="Group 1435" transform="translate(542.634 275.427)">
      <path id="Path_4860" data-name="Path 4860" class="cls-2" d="M541.782,317.89A1.782,1.782,0,0,1,540,316.108V278.023a1.781,1.781,0,0,1,1.173-1.674l13.068-4.752a1.782,1.782,0,1,1,1.219,3.349l-11.9,4.326v36.836A1.782,1.782,0,0,1,541.782,317.89Z" transform="translate(-540 -271.489)"/>
    </g>
    <g id="Group_1436" data-name="Group 1436" transform="translate(542.634 350.34)">
      <path id="Path_4861" data-name="Path 4861" class="cls-2" d="M541.782,352.366A1.782,1.782,0,0,1,540,350.584V336.328a1.782,1.782,0,0,1,3.564,0v14.256A1.782,1.782,0,0,1,541.782,352.366Z" transform="translate(-540 -334.546)"/>
    </g>
    <g id="Group_1437" data-name="Group 1437" transform="translate(556.89 346.776)">
      <path id="Path_4862" data-name="Path 4862" class="cls-2" d="M553.782,352.93A1.782,1.782,0,0,1,552,351.148v-17.82a1.782,1.782,0,0,1,3.564,0v17.82A1.782,1.782,0,0,1,553.782,352.93Z" transform="translate(-552 -331.546)"/>
    </g>
    <g id="Group_1438" data-name="Group 1438" transform="translate(556.89 262.426)">
      <path id="Path_4863" data-name="Path 4863" class="cls-2" d="M553.782,314.007A1.782,1.782,0,0,1,552,312.225v-49.9a1.782,1.782,0,0,1,3.564,0v49.9A1.782,1.782,0,0,1,553.782,314.007Z" transform="translate(-552 -260.546)"/>
    </g>
    <g id="Group_1439" data-name="Group 1439" transform="translate(626.983 325.391)">
      <path id="Path_4864" data-name="Path 4864" class="cls-2" d="M612.782,357.5A1.782,1.782,0,0,1,611,355.721V315.328a1.782,1.782,0,1,1,3.564,0v40.393A1.782,1.782,0,0,1,612.782,357.5Z" transform="translate(-611 -313.546)"/>
    </g>
    <g id="Group_1440" data-name="Group 1440" transform="translate(626.983 262.426)">
      <path id="Path_4865" data-name="Path 4865" class="cls-2" d="M612.782,296.187A1.782,1.782,0,0,1,611,294.4V262.328a1.782,1.782,0,0,1,3.564,0V294.4A1.782,1.782,0,0,1,612.782,296.187Z" transform="translate(-611 -260.546)"/>
    </g>
    <g id="Group_1441" data-name="Group 1441" transform="translate(567.582 274.306)">
      <path id="Path_4866" data-name="Path 4866" class="cls-2" d="M571.1,284.8h-8.316A1.782,1.782,0,0,1,561,283.02V272.328a1.783,1.783,0,0,1,1.782-1.782H571.1a1.783,1.783,0,0,1,1.782,1.782V283.02A1.782,1.782,0,0,1,571.1,284.8Zm-6.534-3.564h4.752V274.11h-4.752Z" transform="translate(-561 -270.546)"/>
    </g>
    <g id="Group_1442" data-name="Group 1442" transform="translate(587.779 274.306)">
      <path id="Path_4867" data-name="Path 4867" class="cls-2" d="M588.1,284.8h-8.316A1.782,1.782,0,0,1,578,283.02V272.328a1.783,1.783,0,0,1,1.782-1.782H588.1a1.783,1.783,0,0,1,1.782,1.782V283.02A1.782,1.782,0,0,1,588.1,284.8Zm-6.534-3.564h4.752V274.11h-4.752Z" transform="translate(-578 -270.546)"/>
    </g>
    <g id="Group_1443" data-name="Group 1443" transform="translate(607.975 274.306)">
      <path id="Path_4868" data-name="Path 4868" class="cls-2" d="M605.1,284.8h-8.316A1.782,1.782,0,0,1,595,283.02V272.328a1.783,1.783,0,0,1,1.782-1.782H605.1a1.783,1.783,0,0,1,1.782,1.782V283.02A1.782,1.782,0,0,1,605.1,284.8Zm-6.534-3.564h4.752V274.11h-4.752Z" transform="translate(-595 -270.546)"/>
    </g>
    <g id="Group_1444" data-name="Group 1444" transform="translate(567.582 295.691)">
      <path id="Path_4869" data-name="Path 4869" class="cls-2" d="M562.782,302.8A1.782,1.782,0,0,1,561,301.02V290.328a1.783,1.783,0,0,1,1.782-1.782H571.1a1.782,1.782,0,1,1,0,3.564h-6.534v8.91A1.782,1.782,0,0,1,562.782,302.8Z" transform="translate(-561 -288.546)"/>
    </g>
    <g id="Group_1445" data-name="Group 1445" transform="translate(587.779 295.691)">
      <path id="Path_4870" data-name="Path 4870" class="cls-2" d="M588.1,292.11h-8.316a1.782,1.782,0,1,1,0-3.564H588.1a1.782,1.782,0,0,1,0,3.564Z" transform="translate(-578 -288.546)"/>
    </g>
    <g id="Group_1446" data-name="Group 1446" transform="translate(607.975 295.691)">
      <path id="Path_4871" data-name="Path 4871" class="cls-2" d="M605.1,292.11h-8.316a1.782,1.782,0,1,1,0-3.564H605.1a1.782,1.782,0,1,1,0,3.564Z" transform="translate(-595 -288.546)"/>
    </g>
    <g id="Group_1447" data-name="Group 1447" transform="translate(525.993 298.144)">
      <path id="Path_4872" data-name="Path 4872" class="cls-3" d="M540.689,325.733a7.912,7.912,0,0,1,.24,2.875,6.7,6.7,0,0,1-.8,2.559l3.4,1.927-1.686,2.307-3.688-2.08a8.4,8.4,0,0,1-1.171.662,7.775,7.775,0,0,1-1.314.47,6.716,6.716,0,0,1-5.42-.676,7.123,7.123,0,0,1-3.189-4.478l-.772-2.942a7.131,7.131,0,0,1,.579-5.458,6.675,6.675,0,0,1,4.38-3.254,6.8,6.8,0,0,1,5.467.674,7.091,7.091,0,0,1,3.211,4.471Zm-4.054-2.1a5.118,5.118,0,0,0-1.777-2.888,3.247,3.247,0,0,0-2.946-.536,3.161,3.161,0,0,0-2.274,1.9,5.261,5.261,0,0,0-.1,3.386l.778,2.966a5.281,5.281,0,0,0,1.763,2.927,3.177,3.177,0,0,0,2.914.545,3.233,3.233,0,0,0,2.3-1.914,5.228,5.228,0,0,0,.111-3.419Z" transform="translate(-525.993 -285.581)"/>
      <path id="Path_4873" data-name="Path 4873" class="cls-3" d="M550.7,313.037l2.844,10.841a5.351,5.351,0,0,1-.706,4.719,7.5,7.5,0,0,1-4.366,2.74,7.416,7.416,0,0,1-5.123-.252,5.382,5.382,0,0,1-2.914-3.768l-2.843-10.841,3.288-.863,2.842,10.831a3.238,3.238,0,0,0,1.5,2.19,3.475,3.475,0,0,0,2.59.178,3.558,3.558,0,0,0,2.2-1.429,3.217,3.217,0,0,0,.24-2.652L547.408,313.9Z" transform="translate(-523.813 -286.394)"/>
      <path id="Path_4874" data-name="Path 4874" class="cls-3" d="M561.5,323.552l-5.735,1.5-.186,3.815-3.311.868,1.338-17.813,3.355-.88,9.884,14.87-3.31.868Zm-5.6-1.277,4.119-1.081-3.7-5.889-.068.017Z" transform="translate(-521.054 -286.769)"/>
      <path id="Path_4875" data-name="Path 4875" class="cls-3" d="M567.094,318.984l1.713,6.531-3.277.859-4.285-16.338,6.161-1.617a7.006,7.006,0,0,1,4.706.127,4.464,4.464,0,0,1,2.508,3.139,3.719,3.719,0,0,1-.093,2.35,4.785,4.785,0,0,1-1.555,1.98,3.627,3.627,0,0,1,2.456.878,4.693,4.693,0,0,1,1.282,2.3l.314,1.2a6.14,6.14,0,0,0,.561,1.382,2.031,2.031,0,0,0,.924.94l.062.236-3.379.886a1.918,1.918,0,0,1-.9-1.048,10.269,10.269,0,0,1-.552-1.559l-.3-1.156a2.677,2.677,0,0,0-1.167-1.726,2.6,2.6,0,0,0-2.058-.186Zm-.663-2.526,2.829-.741a3.2,3.2,0,0,0,1.907-1.124,2.228,2.228,0,0,0,.226-1.906,2.46,2.46,0,0,0-1.148-1.607,2.868,2.868,0,0,0-2.178-.137l-2.883.757Z" transform="translate(-519.365 -287.326)"/>
      <path id="Path_4876" data-name="Path 4876" class="cls-3" d="M584.735,317.456,579,318.961l-.187,3.815-3.311.867,1.336-17.813,3.355-.879,9.885,14.87-3.31.867Zm-5.6-1.277,4.118-1.08-3.7-5.889-.067.018Z" transform="translate(-516.684 -287.915)"/>
      <path id="Path_4877" data-name="Path 4877" class="cls-3" d="M601.978,317.054l-3.266.857-9.528-9.435-.063.029,2.926,11.156-3.278.859-4.286-16.339,3.278-.859,9.524,9.423.065-.029-2.924-11.144,3.267-.857Z" transform="translate(-514.996 -288.711)"/>
      <path id="Path_4878" data-name="Path 4878" class="cls-3" d="M609.356,300.325l-4.623,1.213,3.623,13.814-3.278.859L601.456,302.4l-4.6,1.207-.663-2.525,12.5-3.279Z" transform="translate(-512.794 -289.259)"/>
      <path id="Path_4879" data-name="Path 4879" class="cls-3" d="M615.021,313.221l-3.278.859-4.285-16.339,3.278-.859Z" transform="translate(-510.676 -289.432)"/>
      <path id="Path_4880" data-name="Path 4880" class="cls-3" d="M629.493,309.838l-3.266.857-9.527-9.435-.065.029,2.926,11.154-3.278.86L612,296.963l3.277-.86,9.523,9.423.065-.027-2.923-11.144,3.265-.857Z" transform="translate(-509.822 -290.068)"/>
      <path id="Path_4881" data-name="Path 4881" class="cls-3" d="M637.174,300.062l-6.767,1.775,1.221,4.657,7.911-2.076.663,2.525-11.189,2.936-4.285-16.339,11.166-2.928.663,2.525-7.89,2.068,1.076,4.108,6.768-1.776Z" transform="translate(-507.429 -290.611)"/>
    </g>
    <g id="Group_1448" data-name="Group 1448" transform="translate(552.27 250.546)">
      <path id="Path_4882" data-name="Path 4882" class="cls-2" d="M629.489,264.8H565.206a1.782,1.782,0,0,1,0-3.564h62.062l-1.584-7.128H553.7l-1.585,7.128H555.7a1.782,1.782,0,0,1,0,3.564h-5.809a1.78,1.78,0,0,1-1.738-2.168l2.376-10.692a1.781,1.781,0,0,1,1.738-1.4h74.845a1.781,1.781,0,0,1,1.739,1.4l2.376,10.692a1.781,1.781,0,0,1-1.739,2.168Z" transform="translate(-548.111 -250.546)"/>
    </g>
    <g id="Group_1449" data-name="Group 1449" transform="translate(585.402 342.024)">
      <path id="Path_4883" data-name="Path 4883" class="cls-2" d="M590.85,348.93a1.782,1.782,0,0,1-1.782-1.782V331.11h-9.5v16.038a1.782,1.782,0,1,1-3.564,0v-17.82a1.783,1.783,0,0,1,1.782-1.782H590.85a1.783,1.783,0,0,1,1.782,1.782v17.82A1.782,1.782,0,0,1,590.85,348.93Z" transform="translate(-576 -327.546)"/>
    </g>
    <g id="Group_1450" data-name="Group 1450" transform="translate(575.898 359.844)">
      <path id="Path_4884" data-name="Path 4884" class="cls-2" d="M601.859,353.238a1.782,1.782,0,0,1-1.782-1.782V346.11H571.564v4.158a1.782,1.782,0,0,1-3.564,0v-5.94a1.783,1.783,0,0,1,1.782-1.782h32.077a1.783,1.783,0,0,1,1.782,1.782v7.128A1.782,1.782,0,0,1,601.859,353.238Z" transform="translate(-568 -342.546)"/>
    </g>
  </g>
</svg>
