<svg xmlns="http://www.w3.org/2000/svg" width="115.451" height="100.92" viewBox="0 0 115.451 100.92">
  <defs>
    <style>
      .cls-1 {
        fill: #61c4f2;
      }

      .cls-2 {
        fill: #4f87fb;
      }

      .cls-3 {
        fill: #263357;
      }
    </style>
  </defs>
  <g id="Group_1339" data-name="Group 1339" transform="translate(-321.511 -452.059)">
    <path id="Path_4730" data-name="Path 4730" class="cls-1" d="M424.868,522.376c2.657,1.559,3.322,4.262,2.367,5.7-1.252,1.88-4.207,2.1-6.124-1.956a11.68,11.68,0,0,0-5.864-5.281S420.851,520.021,424.868,522.376Z" transform="translate(-2.758 -2.02)"/>
    <path id="Path_4731" data-name="Path 4731" class="cls-1" d="M334.406,507.693c-3.733,2.8-4.169,7.573-2.094,9.4,2.664,2.345,7.3,1.9,9.109-4.134a21.917,21.917,0,0,1,6.758-9.85S339.791,503.659,334.406,507.693Z" transform="translate(-0.281 -1.502)"/>
    <path id="Path_4732" data-name="Path 4732" class="cls-2" d="M339.066,554.644c1.5-20.046,20.535-30.019,26.823-29.8l11.936,5.533-.609,5.655,8.374,4.652v4.653l14.888-2.791-2.791-6.514,6.406-7.888c7.5,4.236,14.953,13.511,15.925,26.5Z" transform="translate(-0.517 -2.142)"/>
    <g id="Group_1322" data-name="Group 1322" transform="translate(343.948 520.473)">
      <path id="Path_4733" data-name="Path 4733" class="cls-3" d="M367.451,555.053a1.457,1.457,0,0,1-1.323-2.063l10.1-22.007-9.886-5.091-19.051,28.514a1.456,1.456,0,1,1-2.421-1.617l19.773-29.594a1.456,1.456,0,0,1,1.876-.486L378.8,529.03a1.455,1.455,0,0,1,.657,1.9L368.775,554.2A1.456,1.456,0,0,1,367.451,555.053Z" transform="translate(-344.628 -522.547)"/>
    </g>
    <g id="Group_1323" data-name="Group 1323" transform="translate(375.367 510.287)">
      <path id="Path_4734" data-name="Path 4734" class="cls-3" d="M386.22,546.044a1.456,1.456,0,0,1-1.456-1.456v-3.869l-7.161-5.167a1.456,1.456,0,1,1,1.7-2.362l7.765,5.6a1.458,1.458,0,0,1,.6,1.181v2.86l11.884-2.228-2-3.844a1.456,1.456,0,0,1,.13-1.552l6.006-7.936-13.608-12.7a1.456,1.456,0,0,1,1.987-2.128l14.568,13.6a1.456,1.456,0,0,1,.168,1.943l-6.243,8.249L403.051,541a1.457,1.457,0,0,1-1.023,2.1l-15.54,2.914A1.556,1.556,0,0,1,386.22,546.044Z" transform="translate(-377 -512.053)"/>
    </g>
    <g id="Group_1324" data-name="Group 1324" transform="translate(383.132 526.296)">
      <path id="Path_4735" data-name="Path 4735" class="cls-3" d="M386.456,542.135A1.456,1.456,0,0,1,385,540.679V530a1.456,1.456,0,0,1,2.912,0v10.676A1.456,1.456,0,0,1,386.456,542.135Z" transform="translate(-385 -528.547)"/>
    </g>
    <g id="Group_1325" data-name="Group 1325" transform="translate(387.454 518.299)">
      <path id="Path_4736" data-name="Path 4736" class="cls-3" d="M399.205,538.01a1.457,1.457,0,0,1-1.271-.744l-8.295-14.792a1.456,1.456,0,1,1,2.54-1.424l8.3,14.793a1.457,1.457,0,0,1-1.27,2.167Z" transform="translate(-389.453 -520.307)"/>
    </g>
    <g id="Group_1326" data-name="Group 1326" transform="translate(374.384 494.122)">
      <path id="Path_4737" data-name="Path 4737" class="cls-3" d="M378.284,529.261l-.08,0a1.445,1.445,0,0,1-1.375-1.492,6.712,6.712,0,0,1,3.827-5.309c4.316-2.312,9.046-11.947,10.536-15.535.887-2.744.1-7.6-1.38-8.416a9.786,9.786,0,0,0-5.179.364,4.113,4.113,0,0,0-1.974,1.03l-3.87,9.4a1.456,1.456,0,1,1-2.691-1.109l3.9-9.474c.014-.032.027-.064.044-.1.541-1.082,1.795-1.934,3.729-2.533,2.392-.741,5.817-1.039,7.454-.13,3.222,1.787,3.869,8.468,2.715,11.929-.01.033-.022.064-.035.1-.232.559-5.739,13.754-11.873,17.039a3.9,3.9,0,0,0-2.292,2.875A1.471,1.471,0,0,1,378.284,529.261Z" transform="translate(-375.987 -495.397)"/>
    </g>
    <g id="Group_1327" data-name="Group 1327" transform="translate(366.05 501.64)">
      <path id="Path_4738" data-name="Path 4738" class="cls-3" d="M368.855,525.426a1.457,1.457,0,0,1-1.185-2.3,4.228,4.228,0,0,0,.944-2.509c-1.327-2.3.781-11.174.8-11.262.336-1.247,2-4.94,2.19-5.358a1.456,1.456,0,1,1,2.653,1.2c-.675,1.492-1.823,4.144-2.029,4.911-.508,1.895-1.476,8-1.068,9.106,1.218,2.106-.719,5.032-1.12,5.6A1.453,1.453,0,0,1,368.855,525.426Z" transform="translate(-367.4 -503.143)"/>
    </g>
    <g id="Group_1328" data-name="Group 1328" transform="translate(348.517 490.385)">
      <path id="Path_4739" data-name="Path 4739" class="cls-3" d="M363.559,518.5a.32.32,0,0,1-.043,0,30.167,30.167,0,0,1-13.417-3.666,1.457,1.457,0,0,1-.482-2.14,32.133,32.133,0,0,0,4.359-8.206,31.743,31.743,0,0,0,1.829-10.21V493a1.456,1.456,0,1,1,2.912,0V494.3A34.612,34.612,0,0,1,352.944,513a27.07,27.07,0,0,0,10.656,2.583,1.456,1.456,0,0,1-.041,2.911Z" transform="translate(-349.336 -491.547)"/>
    </g>
    <g id="Group_1329" data-name="Group 1329" transform="translate(399.721 491.414)">
      <path id="Path_4740" data-name="Path 4740" class="cls-3" d="M403.548,516.984a1.456,1.456,0,0,1-.352-2.868c.86-.215,1.648-.4,2.382-.566a32.357,32.357,0,0,0,4.037-1.1,34.818,34.818,0,0,1-3.736-7.485l-.169-.472c-1.435-4.007-2.674-7.468-2.721-10.407a1.457,1.457,0,0,1,1.432-1.48,1.439,1.439,0,0,1,1.48,1.433c.04,2.459,1.2,5.71,2.552,9.475l.169.474a32.187,32.187,0,0,0,4.36,8.208,1.455,1.455,0,0,1-.485,2.142,23.591,23.591,0,0,1-6.265,2.049c-.717.165-1.488.343-2.328.552A1.476,1.476,0,0,1,403.548,516.984Z" transform="translate(-402.093 -492.608)"/>
    </g>
    <g id="Group_1330" data-name="Group 1330" transform="translate(355.194 490.927)">
      <path id="Path_4741" data-name="Path 4741" class="cls-3" d="M365.085,512.177a1.453,1.453,0,0,1-1.111-.515,36.259,36.259,0,0,1-7.742-17.882,1.456,1.456,0,0,1,2.88-.432A33.339,33.339,0,0,0,366.2,509.78a1.456,1.456,0,0,1-1.11,2.4Z" transform="translate(-356.215 -492.106)"/>
    </g>
    <g id="Group_1331" data-name="Group 1331" transform="translate(394.277 490.927)">
      <path id="Path_4742" data-name="Path 4742" class="cls-3" d="M397.937,511.177a1.456,1.456,0,0,1-1.152-2.345,33.505,33.505,0,0,0,6.32-15.486,1.456,1.456,0,1,1,2.879.434,36.424,36.424,0,0,1-6.892,16.83A1.455,1.455,0,0,1,397.937,511.177Z" transform="translate(-396.483 -492.106)"/>
    </g>
    <g id="Group_1332" data-name="Group 1332" transform="translate(384.102 488.444)">
      <path id="Path_4743" data-name="Path 4743" class="cls-3" d="M392.309,492.459h-4.853a1.456,1.456,0,1,1,0-2.912h4.853a1.456,1.456,0,0,1,0,2.912Z" transform="translate(-386 -489.547)"/>
    </g>
    <g id="Group_1333" data-name="Group 1333" transform="translate(365.662 488.444)">
      <path id="Path_4744" data-name="Path 4744" class="cls-3" d="M373.309,492.459h-4.853a1.456,1.456,0,1,1,0-2.912h4.853a1.456,1.456,0,0,1,0,2.912Z" transform="translate(-367 -489.547)"/>
    </g>
    <g id="Group_1334" data-name="Group 1334" transform="translate(402.034 524.423)">
      <path id="Path_4745" data-name="Path 4745" class="cls-3" d="M422.63,555.045a1.456,1.456,0,0,1-1.451-1.346c-1.073-14.364-11.526-21.822-15.97-24.362a1.456,1.456,0,1,1,1.445-2.528c4.848,2.771,16.25,10.918,17.43,26.672a1.457,1.457,0,0,1-1.343,1.561C422.7,555.044,422.667,555.045,422.63,555.045Z" transform="translate(-404.476 -526.617)"/>
    </g>
    <g id="Group_1335" data-name="Group 1335" transform="translate(337.284 521.028)">
      <path id="Path_4746" data-name="Path 4746" class="cls-3" d="M339.22,554.942c-.037,0-.074,0-.112,0a1.456,1.456,0,0,1-1.342-1.561c1.539-20.553,20.231-30.548,27.9-30.253a1.456,1.456,0,1,1-.1,2.91c-5.337-.2-23.427,8.041-24.888,27.561A1.456,1.456,0,0,1,339.22,554.942Z" transform="translate(-337.762 -523.118)"/>
    </g>
    <g id="Group_1336" data-name="Group 1336" transform="translate(351.996 452.059)">
      <path id="Path_4747" data-name="Path 4747" class="cls-3" d="M403.1,494.8a1.459,1.459,0,0,1-1.443-1.257,30.027,30.027,0,0,0-7.751-15.5,1.456,1.456,0,1,1,2.059-2.059,32.168,32.168,0,0,1,7.278,12.066c2.061-9.107-.222-18.286-4.094-23.422-2.014-2.67-4.267-4.024-6.341-3.787a1.456,1.456,0,0,1-1.55-1.02c-.351-1.145-2.74-3.23-6.949-4.277-3.685-.918-13.3-2-22.967,7.661-7.72,7.72-5.723,19.956-3.273,26.315,1.045-.491,1.881-1.482,3.194-3.112a35.508,35.508,0,0,1,8.05-7.692c2.386-1.642,5.582-2.624,8.967-3.663,5.605-1.722,11.4-3.5,12.783-8.332a1.456,1.456,0,1,1,2.8.8c-1.815,6.35-8.675,8.458-14.728,10.315-3.164.972-6.152,1.89-8.169,3.279a32.543,32.543,0,0,0-7.436,7.121c-1.751,2.173-3.264,4.05-6.087,4.481a1.456,1.456,0,0,1-1.55-.846c-3.127-7.025-5.933-21.4,3.39-30.725,10.717-10.717,21.564-9.464,25.728-8.427,3.975.989,7.224,2.994,8.55,5.192,2.785.113,5.559,1.842,7.913,4.965,5.044,6.69,7.684,19.493,2.974,31.02A1.457,1.457,0,0,1,403.1,494.8Z" transform="translate(-352.92 -452.059)"/>
    </g>
    <g id="Group_1337" data-name="Group 1337" transform="translate(321.511 461.272)">
      <path id="Path_4748" data-name="Path 4748" class="cls-1" d="M333.985,546.553a1.451,1.451,0,0,1-1.171-.59q-.651-.876-1.269-1.782a1.456,1.456,0,0,1,2.4-1.643q.587.859,1.2,1.693a1.456,1.456,0,0,1-1.169,2.323Zm-4.866-7.84a1.454,1.454,0,0,1-1.3-.793q-.5-.971-.961-1.964a1.456,1.456,0,0,1,2.641-1.229q.438.943.911,1.866a1.456,1.456,0,0,1-1.295,2.12Zm-3.517-8.531a1.458,1.458,0,0,1-1.388-1.014q-.331-1.039-.624-2.1a1.456,1.456,0,1,1,2.806-.779q.278,1,.593,1.992a1.457,1.457,0,0,1-1.387,1.9Zm-2.067-8.993a1.456,1.456,0,0,1-1.439-1.247q-.156-1.077-.272-2.17a1.458,1.458,0,0,1,1.3-1.6,1.474,1.474,0,0,1,1.6,1.3q.109,1.035.257,2.059a1.454,1.454,0,0,1-1.233,1.649A1.4,1.4,0,0,1,323.534,521.188Zm-.566-9.209h-.029a1.455,1.455,0,0,1-1.428-1.484q.02-1.1.083-2.186a1.455,1.455,0,1,1,2.906.166c-.039.689-.066,1.38-.078,2.075A1.457,1.457,0,0,1,322.968,511.979Zm.928-9.182a1.387,1.387,0,0,1-.267-.025,1.455,1.455,0,0,1-1.167-1.7q.2-1.08.438-2.145a1.456,1.456,0,1,1,2.842.633q-.226,1.015-.417,2.041A1.454,1.454,0,0,1,323.9,502.8Zm2.417-8.91a1.434,1.434,0,0,1-.5-.087,1.455,1.455,0,0,1-.873-1.865q.374-1.032.786-2.046a1.456,1.456,0,0,1,2.7,1.1q-.392.959-.745,1.938A1.455,1.455,0,0,1,326.312,493.888Zm3.852-8.388a1.457,1.457,0,0,1-1.269-2.17q.537-.954,1.11-1.886a1.455,1.455,0,0,1,2.481,1.522q-.543.887-1.053,1.792A1.457,1.457,0,0,1,330.165,485.5Zm5.172-7.645a1.456,1.456,0,0,1-1.134-2.368q.684-.853,1.4-1.679a1.456,1.456,0,1,1,2.2,1.907q-.681.785-1.333,1.6A1.453,1.453,0,0,1,335.337,477.855Zm6.348-6.7a1.456,1.456,0,0,1-.973-2.54q.812-.728,1.655-1.429a1.456,1.456,0,0,1,1.862,2.239q-.8.665-1.573,1.359A1.453,1.453,0,0,1,341.684,471.154Zm7.35-5.579a1.456,1.456,0,0,1-.784-2.683q.922-.588,1.866-1.14a1.456,1.456,0,0,1,1.471,2.512q-.9.526-1.771,1.083A1.452,1.452,0,0,1,349.035,465.575Z" transform="translate(-321.511 -461.552)"/>
    </g>
    <g id="Group_1338" data-name="Group 1338" transform="translate(405.356 460.794)">
      <path id="Path_4749" data-name="Path 4749" class="cls-1" d="M427.627,545.753a1.456,1.456,0,0,1-1.184-2.3q.6-.844,1.175-1.712a1.456,1.456,0,1,1,2.432,1.6q-.6.914-1.238,1.8A1.454,1.454,0,0,1,427.627,545.753Zm4.732-7.924a1.455,1.455,0,0,1-1.306-2.1q.456-.933.879-1.882a1.456,1.456,0,1,1,2.661,1.182q-.444,1-.927,1.981A1.454,1.454,0,0,1,432.358,537.83Zm3.37-8.592a1.458,1.458,0,0,1-1.395-1.874q.3-.994.557-2a1.456,1.456,0,1,1,2.819.728q-.274,1.061-.587,2.108A1.455,1.455,0,0,1,435.728,529.238Zm1.909-9.029a1.516,1.516,0,0,1-.186-.012,1.456,1.456,0,0,1-1.26-1.63q.132-1.025.222-2.063a1.456,1.456,0,0,1,2.9.256q-.1,1.095-.235,2.177A1.457,1.457,0,0,1,437.637,520.209Zm.41-9.221a1.456,1.456,0,0,1-1.454-1.4q-.039-1.041-.115-2.075a1.456,1.456,0,0,1,2.9-.215q.08,1.085.12,2.181a1.456,1.456,0,0,1-1.4,1.509Zm-1.086-9.162a1.456,1.456,0,0,1-1.425-1.166q-.208-1.021-.452-2.029a1.456,1.456,0,1,1,2.83-.684q.256,1.058.476,2.133a1.455,1.455,0,0,1-1.137,1.716A1.436,1.436,0,0,1,436.961,501.825Zm-2.572-8.859a1.459,1.459,0,0,1-1.36-.936q-.371-.973-.777-1.925a1.456,1.456,0,0,1,2.679-1.141q.428,1,.819,2.025a1.456,1.456,0,0,1-1.361,1.977Zm-3.991-8.317a1.454,1.454,0,0,1-1.257-.72q-.524-.9-1.083-1.768a1.456,1.456,0,1,1,2.455-1.567q.588.92,1.14,1.864a1.456,1.456,0,0,1-1.255,2.192Zm-5.3-7.551a1.456,1.456,0,0,1-1.12-.525q-.664-.8-1.359-1.571a1.456,1.456,0,0,1,2.167-1.945q.731.812,1.43,1.655A1.456,1.456,0,0,1,425.1,477.1Zm-6.462-6.591a1.454,1.454,0,0,1-.954-.356q-.785-.681-1.595-1.332a1.456,1.456,0,1,1,1.824-2.269q.853.684,1.68,1.4a1.456,1.456,0,0,1-.955,2.556Zm-7.443-5.454a1.447,1.447,0,0,1-.762-.216q-.884-.543-1.79-1.052a1.456,1.456,0,0,1,1.426-2.538q.956.537,1.89,1.11a1.456,1.456,0,0,1-.764,2.7Z" transform="translate(-407.898 -461.058)"/>
    </g>
  </g>
</svg>
