<svg xmlns="http://www.w3.org/2000/svg" width="134.427" height="118.357" viewBox="0 0 134.427 118.357">
  <defs>
    <style>
      .cls-1 {
        fill: #4f87fb;
      }

      .cls-2 {
        fill: #263357;
      }

      .cls-3 {
        fill: #f86464;
      }
    </style>
  </defs>
  <g id="Group_1484" data-name="Group 1484" transform="translate(-115 -653.89)">
    <path id="Path_4904" data-name="Path 4904" class="cls-1" d="M194.229,731.224c-10.671,2.134-45.912-16.8-45.912-16.8l2.161-9.878s39.925,4.092,50.154,6.4c32.3,7.293,29.153,19.631,28.812,17.074,2.134,16.006-14.939,21.342-21.342,33.08a12.242,12.242,0,0,0-1.094,6.677H126.975c.705-9.424,3.137-21.461,8.537-28.812,7.975-10.858,20.177-15.093,24.543-14.939,1.422,8.538,8.536,16.006,17.074,16.006C184.242,740.035,194.229,731.224,194.229,731.224Z" transform="translate(0.803 3.399)"/>
    <g id="Group_1471" data-name="Group 1471" transform="translate(148.08 705.811)">
      <path id="Path_4905" data-name="Path 4905" class="cls-2" d="M206.264,768.982h-.014a1.6,1.6,0,0,1-1.587-1.615l.023-2.865a11.752,11.752,0,0,1,4.341-9.03c7.43-6.064,17.362-15.14,17.8-23.887.173-3.424-1.126-6.472-3.97-9.316-6.088-6.087-35.666-10.345-55.237-13.164-9.378-1.35-16.785-2.416-20.446-3.415a1.6,1.6,0,0,1,.843-3.088c3.469.945,11.156,2.052,20.058,3.335,22.367,3.221,50.2,7.229,57.045,14.069,3.471,3.471,5.121,7.422,4.9,11.74-.506,10.02-11.072,19.755-18.977,26.207a8.561,8.561,0,0,0-3.163,6.577l-.023,2.864A1.6,1.6,0,0,1,206.264,768.982Z" transform="translate(-146 -702.546)"/>
    </g>
    <g id="Group_1472" data-name="Group 1472" transform="translate(126.711 725.977)">
      <path id="Path_4906" data-name="Path 4906" class="cls-2" d="M127.576,767.714a1.6,1.6,0,0,1-1.6-1.6v-6.4c1.237-19.023,15.012-35.021,32.758-38.145.148-.02.218-.036.285-.048.11-.022.216-.042.315-.055a1.578,1.578,0,0,1,1.078.227l.9.56a1.6,1.6,0,0,1,.741,1.186A15.628,15.628,0,0,0,177.794,737.2a15.966,15.966,0,0,0,12.259-5.648,1.6,1.6,0,1,1,2.449,2.063,19.161,19.161,0,0,1-14.708,6.787A18.851,18.851,0,0,1,159,724.769c-16.131,2.949-28.691,17.656-29.825,35.046l0,6.3A1.6,1.6,0,0,1,127.576,767.714Z" transform="translate(-125.975 -721.444)"/>
    </g>
    <g id="Group_1473" data-name="Group 1473" transform="translate(206.246 681.037)">
      <path id="Path_4907" data-name="Path 4907" class="cls-2" d="M202.109,712.47a1.6,1.6,0,0,1-1.368-2.43,28.4,28.4,0,0,0,3.55-9.642A31.613,31.613,0,0,0,202,681.591a1.6,1.6,0,0,1,2.916-1.321A34.854,34.854,0,0,1,207.434,701a31.4,31.4,0,0,1-3.956,10.692A1.6,1.6,0,0,1,202.109,712.47Z" transform="translate(-200.509 -679.33)"/>
    </g>
    <g id="Group_1474" data-name="Group 1474" transform="translate(149.892 653.89)">
      <path id="Path_4908" data-name="Path 4908" class="cls-2" d="M213.255,709.8a1.6,1.6,0,0,1-1.516-2.114c.478-1.414,1.027-2.984,1.657-4.764,2.77-7.823,3.672-23.357-5.2-34.085-6.61-7.991-13.818-11.725-22.684-11.749h-.055c-6.4,0-16.363,3.1-17.53,9.8a1.6,1.6,0,0,1-1.346,1.309c-3.636.528-7.858,4.754-9.685,8.366-2.065,4.083-4.014,7.937-6.014,20.964a1.6,1.6,0,1,1-3.164-.486c2.077-13.531,4.234-17.8,6.32-21.922,2.041-4.035,6.459-8.631,10.981-9.86,2.228-7.845,13.057-11.374,20.437-11.374h.065c9.89.027,17.879,4.13,25.141,12.91,9.721,11.755,8.765,28.684,5.752,37.195-.625,1.763-1.168,3.321-1.642,4.722A1.6,1.6,0,0,1,213.255,709.8Z" transform="translate(-147.698 -653.89)"/>
    </g>
    <g id="Group_1475" data-name="Group 1475" transform="translate(173.785 675.884)">
      <path id="Path_4909" data-name="Path 4909" class="cls-2" d="M172.169,709.034a1.6,1.6,0,0,1-1.572-1.3,34.276,34.276,0,0,1,.15-12.419l.094-.567c2.6-14.905,8.781-19.7,9.044-19.893a1.6,1.6,0,0,1,1.9-.017,78.285,78.285,0,0,1,7.888,7.829,39.3,39.3,0,0,1,2.63-7.225,1.6,1.6,0,0,1,3.055.588c.318,6.631,8.186,13.332,11.544,16.194.646.549,1.159.989,1.482,1.3a1.6,1.6,0,0,1-2.217,2.309c-.291-.278-.758-.674-1.34-1.171C201.7,692,195.95,687.1,193.407,681.25c-1.015,3.027-.958,4.417-.848,4.955a1.6,1.6,0,0,1-2.769,1.379c-1.764-2-6.305-7.012-8.855-9.3-1.636,1.836-5.162,6.807-6.937,16.992l-.093.568a31.362,31.362,0,0,0-.161,11.3,1.6,1.6,0,0,1-1.278,1.869A1.658,1.658,0,0,1,172.169,709.034Z" transform="translate(-170.089 -674.501)"/>
    </g>
    <g id="Group_1476" data-name="Group 1476" transform="translate(148.053 761.576)">
      <path id="Path_4910" data-name="Path 4910" class="cls-2" d="M147.576,765.476a1.6,1.6,0,0,1-1.6-1.6v-7.47a1.6,1.6,0,1,1,3.2,0v7.47A1.6,1.6,0,0,1,147.576,765.476Z" transform="translate(-145.975 -754.805)"/>
    </g>
    <g id="Group_1477" data-name="Group 1477" transform="translate(228.085 684.745)">
      <path id="Path_4911" data-name="Path 4911" class="cls-3" d="M222.577,691.342a1.6,1.6,0,0,1-.849-2.959l8.537-5.335a1.6,1.6,0,0,1,1.7,2.716l-8.537,5.335A1.6,1.6,0,0,1,222.577,691.342Z" transform="translate(-220.975 -682.805)"/>
    </g>
    <g id="Group_1478" data-name="Group 1478" transform="translate(230.219 698.617)">
      <path id="Path_4912" data-name="Path 4912" class="cls-3" d="M224.574,700.073a1.6,1.6,0,0,1-.1-3.2l16.006-1.067a1.6,1.6,0,0,1,.212,3.195l-16.006,1.067C224.646,700.072,224.61,700.073,224.574,700.073Z" transform="translate(-222.975 -695.805)"/>
    </g>
    <g id="Group_1479" data-name="Group 1479" transform="translate(230.219 708.222)">
      <path id="Path_4913" data-name="Path 4913" class="cls-3" d="M232.044,711.208a1.6,1.6,0,0,1-.63-.129l-7.47-3.2a1.6,1.6,0,0,1,1.26-2.943l7.47,3.2a1.6,1.6,0,0,1-.631,3.072Z" transform="translate(-222.974 -704.805)"/>
    </g>
    <g id="Group_1480" data-name="Group 1480" transform="translate(115 701.543)">
      <path id="Path_4914" data-name="Path 4914" class="cls-2" d="M118.191,719.6c-.052,0-.1,0-.154,0a3.866,3.866,0,0,1-2.669-1.353,1.6,1.6,0,0,1-.368-1.021c0-10.105,6.962-14.746,9.25-16.271,3.5-2.336,10.745-2.4,11.559-2.4a1.628,1.628,0,0,1,.459.066c.1.031,9.878,2.955,13.914,4.282a1.6,1.6,0,1,1-1,3.041c-3.651-1.2-12.1-3.737-13.6-4.186-2.12.026-7.349.394-9.554,1.863-3.233,2.156-7.493,5.8-7.806,12.782a1.013,1.013,0,0,0,.451-.306c5.126-5.126,15.676-5.332,20.537-4.724a1.6,1.6,0,0,1-.4,3.176c-4.833-.6-13.963-.1-17.878,3.812A3.825,3.825,0,0,1,118.191,719.6Z" transform="translate(-115 -698.547)"/>
    </g>
    <g id="Group_1481" data-name="Group 1481" transform="translate(186.495 696.205)">
      <path id="Path_4915" data-name="Path 4915" class="cls-2" d="M188.938,697.816a1.591,1.591,0,0,1-.316-.031l-5.335-1.067a1.6,1.6,0,0,1,.627-3.139l5.335,1.067a1.6,1.6,0,0,1-.312,3.17Z" transform="translate(-182 -693.544)"/>
    </g>
    <g id="Group_1482" data-name="Group 1482" transform="translate(204.636 699.409)">
      <path id="Path_4916" data-name="Path 4916" class="cls-2" d="M205.936,699.748H200.6a1.6,1.6,0,0,1,0-3.2h5.335a1.6,1.6,0,0,1,0,3.2Z" transform="translate(-199 -696.547)"/>
    </g>
    <g id="Group_1483" data-name="Group 1483" transform="translate(128.872 717.403)">
      <path id="Path_4917" data-name="Path 4917" class="cls-2" d="M207.065,734.943c-12.679,0-33.01-8.424-46.655-14.077-5.069-2.1-9.446-3.914-10.788-4.129a4.939,4.939,0,0,0-4.179.794,17.316,17.316,0,0,1-7.08,2.412c-3.516.5-7.358-.006-9.557-1.261a1.6,1.6,0,0,1,1.588-2.781,13.31,13.31,0,0,0,7.517.872,14.163,14.163,0,0,0,5.928-2.01,8.022,8.022,0,0,1,6.289-1.187c1.637.261,5.072,1.667,11.508,4.333,13.114,5.433,35.061,14.517,46.83,13.791a1.6,1.6,0,0,1,.2,3.195C208.147,734.927,207.613,734.943,207.065,734.943Z" transform="translate(-128 -713.409)"/>
    </g>
  </g>
</svg>
