<svg xmlns="http://www.w3.org/2000/svg" width="138.762" height="120.588" viewBox="0 0 138.762 120.588">
  <g id="Group_1431" data-name="Group 1431" transform="translate(-317.854 -245.12)">
    <path id="Path_4833" data-name="Path 4833" d="M399.075,355.776c-1.224-15.11-11.434-26.131-24.777-28.4,0,0-6.812,4.95-15.084,5.059L358.1,329.1l-11.113-5.557-2.725,3.832c-13.345,2.266-23.739,13.287-24.971,28.4Z" transform="translate(0.16 8.732)" fill="#4f87fb"/>
    <g id="Group_1410" data-name="Group 1410" transform="translate(326.099 329.873)">
      <path id="Path_4834" data-name="Path 4834" d="M347.365,357.216a1.669,1.669,0,0,1-1.529-2.329l11.08-25.628-9.272-4.1-19.286,31.262a1.667,1.667,0,1,1-2.836-1.751l20.049-32.5a1.665,1.665,0,0,1,2.093-.649l12.114,5.352a1.667,1.667,0,0,1,.856,2.186L348.9,356.209A1.668,1.668,0,0,1,347.365,357.216Z" transform="translate(-325.273 -321.382)" fill="#263357"/>
    </g>
    <g id="Group_1411" data-name="Group 1411" transform="translate(354.185 311.372)">
      <path id="Path_4835" data-name="Path 4835" d="M355.366,330.647a1.669,1.669,0,0,1-1.494-2.407,9.766,9.766,0,0,1,3.955-4.4c3.732-1.938,5.33-9.44,5.671-12.438-.32-1.922-1.149-2.938-1.777-3.226a1.1,1.1,0,0,0-1.067.069l-4.15,4.149-2.857,4.837a1.667,1.667,0,0,1-2.871-1.695l2.965-5.02a1.644,1.644,0,0,1,.257-.33l4.445-4.445a1.58,1.58,0,0,1,.282-.227,4.467,4.467,0,0,1,4.384-.368c1.945.892,3.3,3.072,3.719,5.981a1.688,1.688,0,0,1,.009.4c-.123,1.229-1.377,12.1-7.475,15.269a6.442,6.442,0,0,0-2.5,2.919A1.669,1.669,0,0,1,355.366,330.647Z" transform="translate(-350.545 -304.734)" fill="#263357"/>
    </g>
    <g id="Group_1412" data-name="Group 1412" transform="translate(347.772 314.112)">
      <path id="Path_4836" data-name="Path 4836" d="M347.286,327.331a1.643,1.643,0,0,1-.527-.086,1.667,1.667,0,0,1-1.055-2.109,10.022,10.022,0,0,0,.686-3.814,9.82,9.82,0,0,0-.693-1.886c-.587-1.346-1.141-2.617-.835-3.76.449-1.673,2.115-4.77,5.334-7.988a1.667,1.667,0,0,1,2.357,2.357,18.075,18.075,0,0,0-4.439,6.381,11.1,11.1,0,0,0,.638,1.678,11.318,11.318,0,0,1,.939,2.756,13.052,13.052,0,0,1-.825,5.331A1.667,1.667,0,0,1,347.286,327.331Zm.821-10.967Z" transform="translate(-344.774 -307.2)" fill="#263357"/>
    </g>
    <g id="Group_1413" data-name="Group 1413" transform="translate(403.088 302.324)">
      <path id="Path_4837" data-name="Path 4837" d="M414.408,333.363c-5.741-.013-13.7-1.634-18.673-3.133a1.667,1.667,0,1,1,.964-3.192,72.538,72.538,0,0,0,17.709,2.991,49.164,49.164,0,0,0,30.259-10.544c-1.1-9.745-8.218-17.245-18.432-19.411-6.045,5.218-17.16,6.276-24.3-.616a1.667,1.667,0,0,1,2.316-2.4c6.03,5.822,15.541,4.685,20.31.024a1.648,1.648,0,0,1,1.464-.449c12.485,2.27,21.14,11.479,22.046,23.46a1.671,1.671,0,0,1-.606,1.415A52.51,52.51,0,0,1,414.408,333.363Z" transform="translate(-394.549 -296.593)" fill="#263357"/>
    </g>
    <g id="Group_1414" data-name="Group 1414" transform="translate(395.608 302.339)">
      <path id="Path_4838" data-name="Path 4838" d="M389.485,307.7a1.666,1.666,0,0,1-1.227-2.794,27.427,27.427,0,0,1,15.5-8.268,1.667,1.667,0,1,1,.6,3.28,24.128,24.128,0,0,0-13.643,7.244A1.661,1.661,0,0,1,389.485,307.7Z" transform="translate(-387.818 -296.607)" fill="#263357"/>
    </g>
    <g id="Group_1415" data-name="Group 1415" transform="translate(411.369 275.6)">
      <path id="Path_4839" data-name="Path 4839" d="M407,275.88h-3.334a1.667,1.667,0,1,1,0-3.334H407a1.667,1.667,0,1,1,0,3.334Z" transform="translate(-402 -272.546)" fill="#263357"/>
    </g>
    <g id="Group_1416" data-name="Group 1416" transform="translate(426.928 275.6)">
      <path id="Path_4840" data-name="Path 4840" d="M421,275.88h-3.334a1.667,1.667,0,1,1,0-3.334H421a1.667,1.667,0,1,1,0,3.334Z" transform="translate(-416 -272.546)" fill="#263357"/>
    </g>
    <g id="Group_1417" data-name="Group 1417" transform="translate(416.614 288.152)">
      <path id="Path_4841" data-name="Path 4841" d="M418.238,288.95a1.658,1.658,0,0,1-1.006-.339,5.961,5.961,0,0,0-7.838,0,1.667,1.667,0,1,1-2.014-2.656,9.38,9.38,0,0,1,11.866,0,1.667,1.667,0,0,1-1.008,3Z" transform="translate(-406.719 -283.84)" fill="#263357"/>
    </g>
    <g id="Group_1418" data-name="Group 1418" transform="translate(439.153 321.165)">
      <path id="Path_4842" data-name="Path 4842" d="M428.667,327.993A1.667,1.667,0,0,1,427,326.326V315.213a1.667,1.667,0,0,1,3.334,0v11.113A1.667,1.667,0,0,1,428.667,327.993Z" transform="translate(-427 -313.546)" fill="#263357"/>
    </g>
    <g id="Group_1419" data-name="Group 1419" transform="translate(394.701 245.12)">
      <path id="Path_4843" data-name="Path 4843" d="M436.206,308.245a1.666,1.666,0,0,1-1.476-2.438,48.48,48.48,0,0,0,5.507-19.032c.174-2.436,1.31-24.106-12.311-34.074a22.883,22.883,0,0,0-11.117-4.182,20.809,20.809,0,0,0-3.255,0,26.419,26.419,0,0,0-10.712,4.159c-3.516,2.31-6.665,7.234-6.7,7.283-6.655,10.816-5.837,25.214-5.722,26.82a47.769,47.769,0,0,0,3.567,14.884,1.667,1.667,0,1,1-3.08,1.276,51.123,51.123,0,0,1-3.813-15.921c-.122-1.716-.995-17.1,6.22-28.826.156-.246,3.583-5.6,7.693-8.3a29.243,29.243,0,0,1,12.261-4.694,23.942,23.942,0,0,1,3.745,0,25.862,25.862,0,0,1,12.877,4.819c15.068,11.026,13.856,34.377,13.668,37a51.794,51.794,0,0,1-5.878,20.335A1.668,1.668,0,0,1,436.206,308.245Z" transform="translate(-387.002 -245.12)" fill="#263357"/>
    </g>
    <g id="Group_1420" data-name="Group 1420" transform="translate(403.962 263.158)">
      <path id="Path_4844" data-name="Path 4844" d="M414.226,300.015h-.064c-6.242-.241-12.2-5.316-15.332-10.238a23.4,23.4,0,0,1-3.49-12.368,26.724,26.724,0,0,1,4.628-15.328,1.668,1.668,0,0,1,2.975.459q.6,2.005,1.179,4.011c1.114.137,2.29.256,3.514.356a1.667,1.667,0,1,1-.271,3.323c-1.684-.138-3.288-.31-4.768-.515a1.667,1.667,0,0,1-1.372-1.187q-.187-.64-.369-1.272a22.852,22.852,0,0,0-2.182,10.093,19.884,19.884,0,0,0,2.968,10.638c2.568,4.035,7.6,8.465,12.584,8.694,4.988-.229,10.015-4.659,12.584-8.694a19.882,19.882,0,0,0,2.968-10.636,22.856,22.856,0,0,0-2.18-10.1c-.091.312-.181.625-.272.936l-.1.338a1.665,1.665,0,0,1-1.375,1.186,82.349,82.349,0,0,1-11.64.756c-1.08.018-2.189,0-3.246-.052a1.667,1.667,0,0,1,.163-3.33c.987.049,2.022.067,3.071.048a77.331,77.331,0,0,0,10.13-.586q.582-2.005,1.18-4.011a1.668,1.668,0,0,1,2.975-.459,26.724,26.724,0,0,1,4.627,15.33,23.4,23.4,0,0,1-3.489,12.366c-3.135,4.922-9.091,10-15.333,10.238Z" transform="translate(-395.335 -261.351)" fill="#263357"/>
    </g>
    <g id="Group_1421" data-name="Group 1421" transform="translate(414.358 263.159)">
      <path id="Path_4845" data-name="Path 4845" d="M410.006,270.42a1.668,1.668,0,0,1-1.666-1.634l0-.223-.572.9a1.667,1.667,0,1,1-2.813-1.789l3.532-5.549a1.667,1.667,0,0,1,3.073.86l.119,5.735a1.668,1.668,0,0,1-1.633,1.7Z" transform="translate(-404.689 -261.351)" fill="#263357"/>
    </g>
    <g id="Group_1422" data-name="Group 1422" transform="translate(334.16 299.102)">
      <path id="Path_4846" data-name="Path 4846" d="M339.12,308.137a1.668,1.668,0,0,1-1.564-1.091l-.007-.013c-.036-.024-.281-.143-.459-.23a7.032,7.032,0,0,1-3.775-4.122c-1.829-4.379-.021-6.748.841-7.564a4.922,4.922,0,0,1,5.3-1.038,1.667,1.667,0,0,1-1.454,3,1.71,1.71,0,0,0-1.56.459c-.77.729-.789,2.1-.054,3.857a3.787,3.787,0,0,0,2.158,2.409,3.683,3.683,0,0,1,2.133,2.087,1.668,1.668,0,0,1-1.564,2.245Z" transform="translate(-332.526 -293.694)" fill="#263357"/>
    </g>
    <g id="Group_1423" data-name="Group 1423" transform="translate(349.134 304.495)">
      <path id="Path_4847" data-name="Path 4847" d="M352.112,301.88h-4.445a1.667,1.667,0,1,1,0-3.334h4.445a1.667,1.667,0,0,1,0,3.334Z" transform="translate(-346 -298.546)" fill="#263357"/>
    </g>
    <g id="Group_1424" data-name="Group 1424" transform="translate(364.693 304.495)">
      <path id="Path_4848" data-name="Path 4848" d="M366.112,301.88h-4.445a1.667,1.667,0,1,1,0-3.334h4.445a1.667,1.667,0,1,1,0,3.334Z" transform="translate(-360 -298.546)" fill="#263357"/>
    </g>
    <g id="Group_1425" data-name="Group 1425" transform="translate(338.252 271.949)">
      <path id="Path_4849" data-name="Path 4849" d="M371.22,323.648a1.666,1.666,0,0,1-1.427-2.525c4.175-6.95,5.318-10.588,5.318-16.924,0-5.054-2.176-9.775-3.273-12.041a82.254,82.254,0,0,0-12.491,4.212,1.67,1.67,0,0,1-1.316,0,82.276,82.276,0,0,0-12.4-4.189,30.679,30.679,0,0,0-1.04,3.357,57.239,57.239,0,0,0-1.075,6.93c-.158,1.444-.245,2.239-1.359,2.547a1.67,1.67,0,0,1-1.775-.6c-.017-.022-.033-.044-.049-.068a23.071,23.071,0,0,1-2.286-3.59c-3.175-6.654-1.277-15.184-1.258-15.269,1.9-7.971,8.205-13.824,16.872-15.66,9.066-1.922,18.189,1.125,23.243,7.757a1.667,1.667,0,1,1-2.652,2.02c-4.279-5.613-12.091-8.169-19.9-6.517-7.375,1.563-12.728,6.486-14.32,13.171-.343,1.441-1.155,7.439.628,12.136.182-1.239.411-2.537.695-3.665a35.189,35.189,0,0,1,1.72-5.154,1.666,1.666,0,0,1,1.916-.98,85.651,85.651,0,0,1,13.7,4.431,85.65,85.65,0,0,1,13.7-4.431,1.667,1.667,0,0,1,1.915.98c.077.181.208.449.376.794,1.128,2.318,3.769,7.747,3.769,13.83,0,6.978-1.3,11.159-5.795,18.641A1.666,1.666,0,0,1,371.22,323.648Z" transform="translate(-336.208 -269.261)" fill="#263357"/>
    </g>
    <g id="Group_1426" data-name="Group 1426" transform="translate(374.618 256.896)">
      <path id="Path_4850" data-name="Path 4850" d="M400.169,364.436a1.667,1.667,0,0,1-1.6-1.217L368.993,257.835a1.667,1.667,0,1,1,3.211-.9l29.571,105.384a1.668,1.668,0,0,1-1.606,2.117Z" transform="translate(-368.931 -255.716)" fill="#f86464"/>
    </g>
    <g id="Group_1427" data-name="Group 1427" transform="translate(330.544 316.081)">
      <path id="Path_4851" data-name="Path 4851" d="M341.651,314.7a1.634,1.634,0,0,1-.365-.041l-10.71-2.388a1.667,1.667,0,0,1,.727-3.254l10.709,2.388a1.668,1.668,0,0,1-.361,3.3Z" transform="translate(-329.273 -308.972)" fill="#f86464"/>
    </g>
    <g id="Group_1428" data-name="Group 1428" transform="translate(331.04 325.017)">
      <path id="Path_4852" data-name="Path 4852" d="M331.385,322.9a1.667,1.667,0,0,1-.4-3.284l10.213-2.553A1.667,1.667,0,1,1,342,320.3l-10.213,2.553A1.648,1.648,0,0,1,331.385,322.9Z" transform="translate(-329.719 -317.013)" fill="#f86464"/>
    </g>
    <g id="Group_1429" data-name="Group 1429" transform="translate(357.048 334.058)">
      <path id="Path_4853" data-name="Path 4853" d="M356.831,333.89a20.417,20.417,0,0,1-2.224-.123,1.667,1.667,0,1,1,.363-3.314,17.035,17.035,0,0,0,2.07.1c7.338-.1,13.088-4.957,13.146-5.005a1.661,1.661,0,0,1,1.371-.377,30.043,30.043,0,0,1,12.308,5.156,1.667,1.667,0,0,1-1.929,2.718,26.765,26.765,0,0,0-10.228-4.453c-1.866,1.41-7.532,5.2-14.623,5.3Z" transform="translate(-353.121 -325.147)" fill="#263357"/>
    </g>
    <g id="Group_1430" data-name="Group 1430" transform="translate(317.854 334.058)">
      <path id="Path_4854" data-name="Path 4854" d="M319.522,355.876q-.052,0-.1,0a1.666,1.666,0,0,1-1.561-1.766,31.532,31.532,0,0,1,25.689-28.934,1.667,1.667,0,1,1,.576,3.284,28.168,28.168,0,0,0-22.937,25.855A1.666,1.666,0,0,1,319.522,355.876Z" transform="translate(-317.854 -325.148)" fill="#263357"/>
    </g>
  </g>
</svg>
