<svg xmlns="http://www.w3.org/2000/svg" width="99.354" height="100.896" viewBox="0 0 99.354 100.896">
  <defs>
    <style>
      .cls-1 {
        fill: #61c4f2;
      }

      .cls-2 {
        fill: #4f87fb;
      }

      .cls-3 {
        fill: #f86464;
      }

      .cls-4 {
        fill: #263357;
      }
    </style>
  </defs>
  <g id="Group_1321" data-name="Group 1321" transform="translate(-527.052 -239.546)">
    <g id="Group_1305" data-name="Group 1305" transform="translate(528.732 249.032)">
      <path id="Path_4713" data-name="Path 4713" class="cls-1" d="M530.294,269.518A1.293,1.293,0,0,1,529,268.224V251.84a1.294,1.294,0,0,1,2.587,0v16.385A1.293,1.293,0,0,1,530.294,269.518Z" transform="translate(-529 -250.546)"/>
    </g>
    <g id="Group_1306" data-name="Group 1306" transform="translate(528.732 271.453)">
      <path id="Path_4714" data-name="Path 4714" class="cls-1" d="M530.294,280A1.293,1.293,0,0,1,529,278.7v-.862a1.294,1.294,0,0,1,2.587,0v.862A1.293,1.293,0,0,1,530.294,280Z" transform="translate(-529 -276.546)"/>
    </g>
    <path id="Path_4715" data-name="Path 4715" class="cls-2" d="M575.767,348.783c-17.247,0-29.53-6.575-35.917-13.31,1.317-17.58,17.747-26.128,23.26-25.934,1.877,1.731,4.928,4.176,13.088,4.318,7.761,0,10.348-2.587,12.389-4.318,5.514-.194,21.943,8.354,23.259,25.934C605.46,342.208,593.014,348.783,575.767,348.783Z" transform="translate(-1.762 -9.634)"/>
    <g id="Group_1307" data-name="Group 1307" transform="translate(527.052 257.266)">
      <path id="Path_4716" data-name="Path 4716" class="cls-1" d="M542.928,308.665a1.29,1.29,0,0,1-.915-.379l-14.328-14.328a2.156,2.156,0,0,1,1.525-3.681h7.519a.627.627,0,0,0,.627-.626V261.388a1.294,1.294,0,1,1,2.587,0V289.65a3.218,3.218,0,0,1-3.214,3.213H530.25l13.592,13.592a1.294,1.294,0,0,1-.914,2.208Z" transform="translate(-527.052 -260.094)"/>
    </g>
    <g id="Group_1308" data-name="Group 1308" transform="translate(602.032 248.17)">
      <path id="Path_4717" data-name="Path 4717" class="cls-3" d="M619.222,305.2a2.978,2.978,0,0,1-2.1-.857L614.41,301.8a1.293,1.293,0,1,1,1.768-1.888l2.739,2.565a.412.412,0,0,0,.6.017l15.668-15.918-6.478.051h-.017c-1.9,0-3.46-2.519-3.474-4.173V250.84a1.294,1.294,0,0,1,2.587,0v31.6a2.553,2.553,0,0,0,.966,1.607l7.436-.07a2.18,2.18,0,0,1,2,1.316,2.149,2.149,0,0,1-.448,2.353l-16.4,16.661A2.979,2.979,0,0,1,619.222,305.2Z" transform="translate(-614 -249.546)"/>
    </g>
    <g id="Group_1309" data-name="Group 1309" transform="translate(621.004 239.546)">
      <path id="Path_4718" data-name="Path 4718" class="cls-3" d="M637.294,261.1A1.293,1.293,0,0,1,636,259.811V240.84a1.294,1.294,0,0,1,2.587,0v18.972A1.293,1.293,0,0,1,637.294,261.1Z" transform="translate(-636 -239.546)"/>
    </g>
    <g id="Group_1310" data-name="Group 1310" transform="translate(621.004 263.692)">
      <path id="Path_4719" data-name="Path 4719" class="cls-3" d="M637.294,271A1.294,1.294,0,0,1,636,269.7v-.862a1.294,1.294,0,1,1,2.587,0v.862A1.293,1.293,0,0,1,637.294,271Z" transform="translate(-636 -267.546)"/>
    </g>
    <g id="Group_1311" data-name="Group 1311" transform="translate(563.226 274.903)">
      <path id="Path_4720" data-name="Path 4720" class="cls-4" d="M575.468,283.154h-.005l-5.174-.021a1.294,1.294,0,0,1,.005-2.587h.005l5.174.021a1.294,1.294,0,0,1-.005,2.587Z" transform="translate(-569 -280.546)"/>
    </g>
    <g id="Group_1312" data-name="Group 1312" transform="translate(577.886 274.903)">
      <path id="Path_4721" data-name="Path 4721" class="cls-4" d="M592.468,283.133h-5.174a1.294,1.294,0,1,1,0-2.587h5.174a1.294,1.294,0,1,1,0,2.587Z" transform="translate(-586 -280.546)"/>
    </g>
    <g id="Group_1313" data-name="Group 1313" transform="translate(568.518 286.486)">
      <path id="Path_4722" data-name="Path 4722" class="cls-4" d="M585.826,298.259a1.291,1.291,0,0,1-.78-.262,5.978,5.978,0,0,0-7.833,0,1.294,1.294,0,0,1-1.563-2.062,8.652,8.652,0,0,1,10.96,0,1.293,1.293,0,0,1-.783,2.324Z" transform="translate(-575.137 -293.978)"/>
    </g>
    <g id="Group_1314" data-name="Group 1314" transform="translate(594.271 322.332)">
      <path id="Path_4723" data-name="Path 4723" class="cls-4" d="M606.294,348.481A1.293,1.293,0,0,1,605,347.188V336.84a1.294,1.294,0,1,1,2.587,0v10.348A1.293,1.293,0,0,1,606.294,348.481Z" transform="translate(-605 -335.546)"/>
    </g>
    <g id="Group_1315" data-name="Group 1315" transform="translate(551.316 322.332)">
      <path id="Path_4724" data-name="Path 4724" class="cls-4" d="M556.483,348.481a1.293,1.293,0,0,1-1.294-1.294V336.84a1.294,1.294,0,1,1,2.587,0v10.348A1.293,1.293,0,0,1,556.483,348.481Z" transform="translate(-555.189 -335.546)"/>
    </g>
    <g id="Group_1316" data-name="Group 1316" transform="translate(536.795 298.609)">
      <path id="Path_4725" data-name="Path 4725" class="cls-4" d="M575.561,349.869c-14.935,0-28.713-5.126-36.855-13.712a1.3,1.3,0,0,1-.352-.987c1.342-17.915,17.659-27.133,24.353-27.133.083,0,.162,0,.242,0a1.3,1.3,0,0,1,.8.315c7.276,6.294,17.818,4.934,23.806-.018a1.3,1.3,0,0,1,.78-.3c6.575-.234,23.237,8.994,24.594,27.13a1.3,1.3,0,0,1-.351.987C604.436,344.743,590.6,349.869,575.561,349.869ZM540.983,334.79c7.713,7.832,20.584,12.492,34.578,12.492,20.368,0,31.336-9.074,34.74-12.494-1.519-15.892-16.02-23.925-21.466-24.16-6.769,5.309-18.254,6.7-26.4,0C556.976,310.878,542.5,318.911,540.983,334.79Z" transform="translate(-538.35 -308.036)"/>
    </g>
    <g id="Group_1317" data-name="Group 1317" transform="translate(573.217 276.627)">
      <path id="Path_4726" data-name="Path 4726" class="cls-4" d="M581.88,304.683a1.294,1.294,0,1,1,0-2.587c7.978,0,14.69-7.586,16.325-18.448a1.293,1.293,0,1,1,2.558.385C598.934,296.191,591.168,304.683,581.88,304.683Z" transform="translate(-580.586 -282.546)"/>
    </g>
    <g id="Group_1318" data-name="Group 1318" transform="translate(556.045 260.243)">
      <path id="Path_4727" data-name="Path 4727" class="cls-4" d="M578.92,302.068c-7.743,0-14.468-5.858-17.552-15.287a14.187,14.187,0,0,1,.318-9.658,55.43,55.43,0,0,1,9.133-13.2,1.293,1.293,0,1,1,1.828,1.829,53.008,53.008,0,0,0-8.56,12.327,11.6,11.6,0,0,0-.26,7.895c2.723,8.329,8.506,13.5,15.092,13.5a1.294,1.294,0,1,1,0,2.587Z" transform="translate(-560.672 -263.547)"/>
    </g>
    <g id="Group_1319" data-name="Group 1319" transform="translate(564.951 256.792)">
      <path id="Path_4728" data-name="Path 4728" class="cls-4" d="M598.166,281.967a1.288,1.288,0,0,1-.2-.015A35.862,35.862,0,0,1,581,274.81c-4.98-3.735-9.05-10-9.965-13.657a1.293,1.293,0,1,1,2.509-.627c.811,3.244,4.624,8.926,9.007,12.214a33.4,33.4,0,0,0,15.8,6.656,1.293,1.293,0,0,1-.194,2.572Z" transform="translate(-571 -259.545)"/>
    </g>
    <g id="Group_1320" data-name="Group 1320" transform="translate(546.898 246.167)">
      <path id="Path_4729" data-name="Path 4729" class="cls-4" d="M554.392,300.52a1.29,1.29,0,0,1-1.061-.554c-.123-.174-2.984-4.328-3.23-8.742a22.132,22.132,0,0,1,1.131-8.161,13.763,13.763,0,0,0,.809-5.359c-1-11.674,9.591-22.813,10.042-23.281a7.976,7.976,0,0,1,4.765-2.557c1.065-1.727,3.65-3.307,6.814-4.094,3.379-.84,12.162-1.879,20.674,6.634.468.486,11.054,11.625,10.058,23.3a13.78,13.78,0,0,0,.81,5.359,22.118,22.118,0,0,1,1.131,8.162c-.245,4.413-3.106,8.567-3.229,8.741a1.293,1.293,0,0,1-2.123-1.478c.026-.037,2.565-3.737,2.768-7.407a19.656,19.656,0,0,0-1.03-7.294,16,16,0,0,1-.9-6.3c.9-10.517-9.225-21.161-9.326-21.267-7.563-7.562-15.25-6.669-18.205-5.936-3.234.8-5.111,2.388-5.362,3.2a1.293,1.293,0,0,1-1.224.914,5.111,5.111,0,0,0-3.771,1.835c-.085.089-10.205,10.754-9.311,21.249a16,16,0,0,1-.9,6.3,19.635,19.635,0,0,0-1.031,7.294,16.984,16.984,0,0,0,2.766,7.406,1.292,1.292,0,0,1-1.06,2.033Z" transform="translate(-550.066 -247.224)"/>
    </g>
  </g>
</svg>
